<svg width="64" height="63" viewBox="0 0 64 63" fill="none" xmlns="http://www.w3.org/2000/svg">
<path fill-rule="evenodd" clip-rule="evenodd" d="M40.3557 55.7426L35.6109 57.1865L33 52.834L36.7788 49.6119L36.6824 49.0444C36.5774 48.4268 36.523 47.7462 36.523 47C36.523 46.2538 36.5774 45.5732 36.6824 44.9556L36.7788 44.3882L33 41.166L35.6109 36.8135L40.3561 38.2576L40.7799 37.9554C41.3811 37.5266 41.9593 37.1717 42.5143 36.8871C43.092 36.5909 43.7165 36.3046 44.3887 36.0287L44.9017 35.8181L45.8843 31H51.1157L52.0986 35.8192L52.6129 36.0293C53.2816 36.3026 53.9052 36.5884 54.4844 36.8864C55.0428 37.1738 55.6216 37.5291 56.2206 37.9557L56.6443 38.2575L61.3891 36.8135L64 41.166L60.2212 44.3882L60.3176 44.9556C60.4226 45.5732 60.477 46.2538 60.477 47C60.477 47.7462 60.4226 48.4268 60.3176 49.0444L60.2212 49.6119L64 52.834L61.3891 57.1865L56.6439 55.7424L56.2201 56.0447C55.6182 56.4739 55.0391 56.8304 54.4829 57.1177C53.908 57.4147 53.2863 57.6986 52.6167 57.9691L52.0991 58.1782L51.1157 63H45.8843L44.9014 58.1808L44.3871 57.9707C43.7184 57.6975 43.0948 57.4116 42.5156 57.1136C41.9571 56.8262 41.3784 56.4709 40.7794 56.0443L40.3557 55.7426ZM55.442 47L56.4878 46.9992C56.4927 49.1457 55.7017 51.0096 54.1459 52.5352C52.5904 54.0605 50.6901 54.8375 48.5013 54.8378L47.3704 53.7294C47.37 53.7293 47.3696 53.7292 47.3691 53.7292L48.5 54.8378C46.3133 54.8401 44.41 54.0644 42.8541 52.5386C41.2982 51.0129 40.5053 49.1483 40.5053 47L41.6353 48.1078C41.6352 48.1077 41.6353 48.1079 41.6353 48.1078L40.5053 47V46.9975C40.5106 44.8526 41.3045 42.9904 42.8569 41.4654C44.4105 39.9394 46.3103 39.1623 48.4994 39.1622C50.6889 39.1597 52.5892 39.9357 54.1431 41.462C55.6962 42.9876 56.4876 44.8518 56.4878 46.9992L56.4878 46.9975L55.442 47Z" fill="#0091FF"/>
<path d="M1.40878 56.5782C0.447541 55.6114 -0.00161066 54.5155 4.3393e-06 53.1783V4.8242C4.3393e-06 3.48309 0.4509 2.38518 1.41221 1.41827C2.37354 0.451343 3.4646 -0.00162346 4.79687 4.37139e-06H52.8711C54.2073 4.37139e-06 55.3003 0.454721 56.2617 1.42172C57.2229 2.38856 57.6721 3.4845 57.6705 4.82166V21.2917C57.4282 21.2155 57.1848 21.1434 56.9401 21.0755C56.2811 20.8926 55.6141 20.7325 54.9391 20.5953V5.74102C54.9391 4.08417 53.596 2.74102 51.9391 2.74102H5.73135C4.0745 2.74102 2.73135 4.08417 2.73135 5.74102V37.9905H17.8328C18.4555 39.2895 19.3049 40.4537 20.3711 41.475C21.3453 42.4083 22.415 43.1626 23.5773 43.7255C23.507 44.4051 23.4552 45.0888 23.4218 45.7764C23.4092 46.036 23.4016 46.2952 23.3989 46.554C22.5576 46.2199 21.7434 45.8074 20.9551 45.3157C19.3602 44.3211 17.9467 43.057 16.7125 41.5098L16.0916 40.7315H2.73135V52.2589C2.73135 53.9158 4.0745 55.2589 5.73135 55.2589H25.0383C25.3354 56.0809 25.6578 56.8807 26.0056 57.6581C26.0568 57.7725 26.109 57.8865 26.1623 58H4.79937C3.46319 58 2.37018 57.5452 1.40878 56.5782Z" fill="#2B4D84"/>
</svg>
