<svg width="200" height="200" viewBox="0 0 200 200" fill="none" xmlns="http://www.w3.org/2000/svg">
<g opacity="0.2">
<mask id="mask0_37_1081" style="mask-type:alpha" maskUnits="userSpaceOnUse" x="0" y="0" width="200" height="200">
<ellipse cx="100" cy="100" rx="100" ry="100" fill="#D9D9D9"/>
</mask>
<g mask="url(#mask0_37_1081)">
<path d="M-32.1804 -5.55936C-23.9979 -23.7726 3.30206 -51.7243 47.0415 -17.8254C101.716 24.5483 117.337 17.1143 135.413 -17.8254C153.489 -52.765 198.121 -58.7122 231.818 -17.8254" stroke="#245797" stroke-width="1.5"/>
<path d="M-32.1804 14.8087C-23.9979 -3.40455 3.30206 -31.3563 47.0415 2.54264C101.716 44.9163 117.337 37.4823 135.413 2.54266C153.489 -32.397 198.121 -38.3442 231.818 2.54267" stroke="#245797" stroke-width="1.5"/>
<path d="M-32.1804 35.1764C-23.9979 16.9631 3.30206 -10.9886 47.0415 22.9103C101.716 65.284 117.337 57.85 135.413 22.9103C153.489 -12.0293 198.121 -17.9765 231.818 22.9103" stroke="#245797" stroke-width="1.5"/>
<path d="M-32.1804 116.648C-23.9979 98.4348 3.30206 70.4831 47.0415 104.382C101.716 146.756 117.337 139.322 135.413 104.382C153.489 69.4424 198.121 63.4952 231.818 104.382" stroke="#245797" stroke-width="1.5"/>
<path d="M-32.1804 137.016C-23.9979 118.803 3.30206 90.851 47.0415 124.75C101.716 167.124 117.337 159.69 135.413 124.75C153.489 89.8103 198.121 83.8631 231.818 124.75" stroke="#245797" stroke-width="1.5"/>
<path d="M-32.1804 157.384C-23.9979 139.171 3.30206 111.219 47.0415 145.118C101.716 187.491 117.337 180.058 135.413 145.118C153.489 110.178 198.121 104.231 231.818 145.118" stroke="#245797" stroke-width="1.5"/>
<path d="M-32.1804 55.5444C-23.9979 37.3312 3.30206 9.37944 47.0415 43.2784C101.716 85.652 117.337 78.218 135.413 43.2784C153.489 8.33872 198.121 2.39152 231.818 43.2784" stroke="#245797" stroke-width="1.5"/>
<path d="M-32.1804 75.9123C-23.9979 57.6991 3.30206 29.7474 47.0415 63.6463C101.716 106.02 117.337 98.5859 135.413 63.6463C153.489 28.7066 198.121 22.7594 231.818 63.6463" stroke="#245797" stroke-width="1.5"/>
<path d="M-32.1804 96.28C-23.9979 78.0668 3.30206 50.115 47.0415 84.014C101.716 126.388 117.337 118.954 135.413 84.014C153.489 49.0743 198.121 43.1271 231.818 84.014" stroke="#245797" stroke-width="1.5"/>
<path d="M-32.1804 177.752C-23.9979 159.538 3.30206 131.587 47.0415 165.486C101.716 207.859 117.337 200.425 135.413 165.486C153.489 130.546 198.121 124.599 231.818 165.486" stroke="#245797" stroke-width="1.5"/>
<path d="M-32.1804 198.119C-23.9979 179.906 3.30206 151.955 47.0415 185.853C101.716 228.227 117.337 220.793 135.413 185.853C153.489 150.914 198.121 144.967 231.818 185.853" stroke="#245797" stroke-width="1.5"/>
<path d="M-32.1804 218.488C-23.9979 200.274 3.30206 172.323 47.0415 206.221C101.716 248.595 117.337 241.161 135.413 206.221C153.489 171.282 198.121 165.335 231.818 206.222" stroke="#245797" stroke-width="1.5"/>
</g>
</g>
</svg>
