<svg width="92" height="87" viewBox="0 0 92 87" fill="none" xmlns="http://www.w3.org/2000/svg">
<g opacity="0.2">
<ellipse cx="1.28972" cy="1.31818" rx="1.28972" ry="1.31818" fill="#2B4D84"/>
<ellipse cx="8.16814" cy="1.31818" rx="1.28972" ry="1.31818" fill="#2B4D84"/>
<ellipse cx="15.0467" cy="1.31818" rx="1.28972" ry="1.31818" fill="#2B4D84"/>
<ellipse cx="21.9252" cy="1.31818" rx="1.28972" ry="1.31818" fill="#2B4D84"/>
<ellipse cx="28.8038" cy="1.31818" rx="1.28972" ry="1.31818" fill="#2B4D84"/>
<ellipse cx="35.6823" cy="1.31818" rx="1.28972" ry="1.31818" fill="#2B4D84"/>
<ellipse cx="42.5607" cy="1.31818" rx="1.28972" ry="1.31818" fill="#2B4D84"/>
<ellipse cx="49.4391" cy="1.31818" rx="1.28972" ry="1.31818" fill="#2B4D84"/>
<ellipse cx="56.3178" cy="1.31818" rx="1.28972" ry="1.31818" fill="#2B4D84"/>
<ellipse cx="63.1962" cy="1.31818" rx="1.28972" ry="1.31818" fill="#2B4D84"/>
<ellipse cx="70.0749" cy="1.31818" rx="1.28972" ry="1.31818" fill="#2B4D84"/>
<ellipse cx="76.9533" cy="1.31818" rx="1.28972" ry="1.31818" fill="#2B4D84"/>
<ellipse cx="83.8317" cy="1.31818" rx="1.28972" ry="1.31818" fill="#2B4D84"/>
<ellipse cx="90.7104" cy="1.31818" rx="1.28972" ry="1.31818" fill="#2B4D84"/>
<ellipse cx="1.28972" cy="8.34851" rx="1.28972" ry="1.31818" fill="#2B4D84"/>
<ellipse cx="8.16814" cy="8.34851" rx="1.28972" ry="1.31818" fill="#2B4D84"/>
<ellipse cx="15.0467" cy="8.34851" rx="1.28972" ry="1.31818" fill="#2B4D84"/>
<ellipse cx="21.9252" cy="8.34851" rx="1.28972" ry="1.31818" fill="#2B4D84"/>
<ellipse cx="28.8038" cy="8.34851" rx="1.28972" ry="1.31818" fill="#2B4D84"/>
<ellipse cx="35.6823" cy="8.34851" rx="1.28972" ry="1.31818" fill="#2B4D84"/>
<ellipse cx="42.5607" cy="8.34851" rx="1.28972" ry="1.31818" fill="#2B4D84"/>
<ellipse cx="49.4391" cy="8.34851" rx="1.28972" ry="1.31818" fill="#2B4D84"/>
<ellipse cx="56.3178" cy="8.34851" rx="1.28972" ry="1.31818" fill="#2B4D84"/>
<ellipse cx="63.1962" cy="8.34851" rx="1.28972" ry="1.31818" fill="#2B4D84"/>
<ellipse cx="70.0749" cy="8.34851" rx="1.28972" ry="1.31818" fill="#2B4D84"/>
<ellipse cx="76.9533" cy="8.34851" rx="1.28972" ry="1.31818" fill="#2B4D84"/>
<ellipse cx="83.8317" cy="8.34851" rx="1.28972" ry="1.31818" fill="#2B4D84"/>
<ellipse cx="90.7104" cy="8.34851" rx="1.28972" ry="1.31818" fill="#2B4D84"/>
<ellipse cx="1.28972" cy="15.3788" rx="1.28972" ry="1.31818" fill="#2B4D84"/>
<ellipse cx="8.16814" cy="15.3788" rx="1.28972" ry="1.31818" fill="#2B4D84"/>
<ellipse cx="15.0467" cy="15.3788" rx="1.28972" ry="1.31818" fill="#2B4D84"/>
<ellipse cx="21.9252" cy="15.3788" rx="1.28972" ry="1.31818" fill="#2B4D84"/>
<ellipse cx="28.8038" cy="15.3788" rx="1.28972" ry="1.31818" fill="#2B4D84"/>
<ellipse cx="35.6823" cy="15.3788" rx="1.28972" ry="1.31818" fill="#2B4D84"/>
<ellipse cx="42.5607" cy="15.3788" rx="1.28972" ry="1.31818" fill="#2B4D84"/>
<ellipse cx="49.4391" cy="15.3788" rx="1.28972" ry="1.31818" fill="#2B4D84"/>
<ellipse cx="56.3178" cy="15.3788" rx="1.28972" ry="1.31818" fill="#2B4D84"/>
<ellipse cx="63.1962" cy="15.3788" rx="1.28972" ry="1.31818" fill="#2B4D84"/>
<ellipse cx="70.0749" cy="15.3788" rx="1.28972" ry="1.31818" fill="#2B4D84"/>
<ellipse cx="76.9533" cy="15.3788" rx="1.28972" ry="1.31818" fill="#2B4D84"/>
<ellipse cx="83.8317" cy="15.3788" rx="1.28972" ry="1.31818" fill="#2B4D84"/>
<ellipse cx="90.7104" cy="15.3788" rx="1.28972" ry="1.31818" fill="#2B4D84"/>
<ellipse cx="1.28972" cy="22.4091" rx="1.28972" ry="1.31818" fill="#2B4D84"/>
<ellipse cx="8.16814" cy="22.4091" rx="1.28972" ry="1.31818" fill="#2B4D84"/>
<ellipse cx="15.0467" cy="22.4091" rx="1.28972" ry="1.31818" fill="#2B4D84"/>
<ellipse cx="21.9252" cy="22.4091" rx="1.28972" ry="1.31818" fill="#2B4D84"/>
<ellipse cx="28.8038" cy="22.4091" rx="1.28972" ry="1.31818" fill="#2B4D84"/>
<ellipse cx="35.6823" cy="22.4091" rx="1.28972" ry="1.31818" fill="#2B4D84"/>
<ellipse cx="42.5607" cy="22.4091" rx="1.28972" ry="1.31818" fill="#2B4D84"/>
<ellipse cx="49.4391" cy="22.4091" rx="1.28972" ry="1.31818" fill="#2B4D84"/>
<ellipse cx="56.3178" cy="22.4091" rx="1.28972" ry="1.31818" fill="#2B4D84"/>
<ellipse cx="63.1962" cy="22.4091" rx="1.28972" ry="1.31818" fill="#2B4D84"/>
<ellipse cx="70.0749" cy="22.4091" rx="1.28972" ry="1.31818" fill="#2B4D84"/>
<ellipse cx="76.9533" cy="22.4091" rx="1.28972" ry="1.31818" fill="#2B4D84"/>
<ellipse cx="83.8317" cy="22.4091" rx="1.28972" ry="1.31818" fill="#2B4D84"/>
<ellipse cx="90.7104" cy="22.4091" rx="1.28972" ry="1.31818" fill="#2B4D84"/>
<ellipse cx="1.28972" cy="29.4394" rx="1.28972" ry="1.31818" fill="#2B4D84"/>
<ellipse cx="8.16814" cy="29.4394" rx="1.28972" ry="1.31818" fill="#2B4D84"/>
<ellipse cx="15.0467" cy="29.4394" rx="1.28972" ry="1.31818" fill="#2B4D84"/>
<ellipse cx="21.9252" cy="29.4394" rx="1.28972" ry="1.31818" fill="#2B4D84"/>
<ellipse cx="28.8038" cy="29.4394" rx="1.28972" ry="1.31818" fill="#2B4D84"/>
<ellipse cx="35.6823" cy="29.4394" rx="1.28972" ry="1.31818" fill="#2B4D84"/>
<ellipse cx="42.5607" cy="29.4394" rx="1.28972" ry="1.31818" fill="#2B4D84"/>
<ellipse cx="49.4391" cy="29.4394" rx="1.28972" ry="1.31818" fill="#2B4D84"/>
<ellipse cx="56.3178" cy="29.4394" rx="1.28972" ry="1.31818" fill="#2B4D84"/>
<ellipse cx="63.1962" cy="29.4394" rx="1.28972" ry="1.31818" fill="#2B4D84"/>
<ellipse cx="70.0749" cy="29.4394" rx="1.28972" ry="1.31818" fill="#2B4D84"/>
<ellipse cx="76.9533" cy="29.4394" rx="1.28972" ry="1.31818" fill="#2B4D84"/>
<ellipse cx="83.8317" cy="29.4394" rx="1.28972" ry="1.31818" fill="#2B4D84"/>
<ellipse cx="90.7104" cy="29.4394" rx="1.28972" ry="1.31818" fill="#2B4D84"/>
<ellipse cx="1.28972" cy="36.4697" rx="1.28972" ry="1.31818" fill="#2B4D84"/>
<ellipse cx="8.16814" cy="36.4697" rx="1.28972" ry="1.31818" fill="#2B4D84"/>
<ellipse cx="15.0467" cy="36.4697" rx="1.28972" ry="1.31818" fill="#2B4D84"/>
<ellipse cx="21.9252" cy="36.4697" rx="1.28972" ry="1.31818" fill="#2B4D84"/>
<ellipse cx="28.8038" cy="36.4697" rx="1.28972" ry="1.31818" fill="#2B4D84"/>
<ellipse cx="35.6823" cy="36.4697" rx="1.28972" ry="1.31818" fill="#2B4D84"/>
<ellipse cx="42.5607" cy="36.4697" rx="1.28972" ry="1.31818" fill="#2B4D84"/>
<ellipse cx="49.4391" cy="36.4697" rx="1.28972" ry="1.31818" fill="#2B4D84"/>
<ellipse cx="56.3178" cy="36.4697" rx="1.28972" ry="1.31818" fill="#2B4D84"/>
<ellipse cx="63.1962" cy="36.4697" rx="1.28972" ry="1.31818" fill="#2B4D84"/>
<ellipse cx="70.0749" cy="36.4697" rx="1.28972" ry="1.31818" fill="#2B4D84"/>
<ellipse cx="76.9533" cy="36.4697" rx="1.28972" ry="1.31818" fill="#2B4D84"/>
<ellipse cx="83.8317" cy="36.4697" rx="1.28972" ry="1.31818" fill="#2B4D84"/>
<ellipse cx="90.7104" cy="36.4697" rx="1.28972" ry="1.31818" fill="#2B4D84"/>
<ellipse cx="1.28972" cy="43.5" rx="1.28972" ry="1.31818" fill="#2B4D84"/>
<ellipse cx="8.16814" cy="43.5" rx="1.28972" ry="1.31818" fill="#2B4D84"/>
<ellipse cx="15.0467" cy="43.5" rx="1.28972" ry="1.31818" fill="#2B4D84"/>
<ellipse cx="21.9252" cy="43.5" rx="1.28972" ry="1.31818" fill="#2B4D84"/>
<ellipse cx="28.8038" cy="43.5" rx="1.28972" ry="1.31818" fill="#2B4D84"/>
<ellipse cx="35.6823" cy="43.5" rx="1.28972" ry="1.31818" fill="#2B4D84"/>
<ellipse cx="42.5607" cy="43.5" rx="1.28972" ry="1.31818" fill="#2B4D84"/>
<ellipse cx="49.4391" cy="43.5" rx="1.28972" ry="1.31818" fill="#2B4D84"/>
<ellipse cx="56.3178" cy="43.5" rx="1.28972" ry="1.31818" fill="#2B4D84"/>
<ellipse cx="63.1962" cy="43.5" rx="1.28972" ry="1.31818" fill="#2B4D84"/>
<ellipse cx="70.0749" cy="43.5" rx="1.28972" ry="1.31818" fill="#2B4D84"/>
<ellipse cx="76.9533" cy="43.5" rx="1.28972" ry="1.31818" fill="#2B4D84"/>
<ellipse cx="83.8317" cy="43.5" rx="1.28972" ry="1.31818" fill="#2B4D84"/>
<ellipse cx="90.7104" cy="43.5" rx="1.28972" ry="1.31818" fill="#2B4D84"/>
<ellipse cx="1.28972" cy="50.5303" rx="1.28972" ry="1.31818" fill="#2B4D84"/>
<ellipse cx="8.16814" cy="50.5303" rx="1.28972" ry="1.31818" fill="#2B4D84"/>
<ellipse cx="15.0467" cy="50.5303" rx="1.28972" ry="1.31818" fill="#2B4D84"/>
<ellipse cx="21.9252" cy="50.5303" rx="1.28972" ry="1.31818" fill="#2B4D84"/>
<ellipse cx="28.8038" cy="50.5303" rx="1.28972" ry="1.31818" fill="#2B4D84"/>
<ellipse cx="35.6823" cy="50.5303" rx="1.28972" ry="1.31818" fill="#2B4D84"/>
<ellipse cx="42.5607" cy="50.5303" rx="1.28972" ry="1.31818" fill="#2B4D84"/>
<ellipse cx="49.4391" cy="50.5303" rx="1.28972" ry="1.31818" fill="#2B4D84"/>
<ellipse cx="56.3178" cy="50.5303" rx="1.28972" ry="1.31818" fill="#2B4D84"/>
<ellipse cx="63.1962" cy="50.5303" rx="1.28972" ry="1.31818" fill="#2B4D84"/>
<ellipse cx="70.0749" cy="50.5303" rx="1.28972" ry="1.31818" fill="#2B4D84"/>
<ellipse cx="76.9533" cy="50.5303" rx="1.28972" ry="1.31818" fill="#2B4D84"/>
<ellipse cx="83.8317" cy="50.5303" rx="1.28972" ry="1.31818" fill="#2B4D84"/>
<ellipse cx="90.7104" cy="50.5303" rx="1.28972" ry="1.31818" fill="#2B4D84"/>
<ellipse cx="1.28972" cy="57.5606" rx="1.28972" ry="1.31818" fill="#2B4D84"/>
<ellipse cx="8.16814" cy="57.5606" rx="1.28972" ry="1.31818" fill="#2B4D84"/>
<ellipse cx="15.0467" cy="57.5606" rx="1.28972" ry="1.31818" fill="#2B4D84"/>
<ellipse cx="21.9252" cy="57.5606" rx="1.28972" ry="1.31818" fill="#2B4D84"/>
<ellipse cx="28.8038" cy="57.5606" rx="1.28972" ry="1.31818" fill="#2B4D84"/>
<ellipse cx="35.6823" cy="57.5606" rx="1.28972" ry="1.31818" fill="#2B4D84"/>
<ellipse cx="42.5607" cy="57.5606" rx="1.28972" ry="1.31818" fill="#2B4D84"/>
<ellipse cx="49.4391" cy="57.5606" rx="1.28972" ry="1.31818" fill="#2B4D84"/>
<ellipse cx="56.3178" cy="57.5606" rx="1.28972" ry="1.31818" fill="#2B4D84"/>
<ellipse cx="63.1962" cy="57.5606" rx="1.28972" ry="1.31818" fill="#2B4D84"/>
<ellipse cx="70.0749" cy="57.5606" rx="1.28972" ry="1.31818" fill="#2B4D84"/>
<ellipse cx="76.9533" cy="57.5606" rx="1.28972" ry="1.31818" fill="#2B4D84"/>
<ellipse cx="83.8317" cy="57.5606" rx="1.28972" ry="1.31818" fill="#2B4D84"/>
<ellipse cx="90.7104" cy="57.5606" rx="1.28972" ry="1.31818" fill="#2B4D84"/>
<ellipse cx="1.28972" cy="64.5909" rx="1.28972" ry="1.31818" fill="#2B4D84"/>
<ellipse cx="8.16814" cy="64.5909" rx="1.28972" ry="1.31818" fill="#2B4D84"/>
<ellipse cx="15.0467" cy="64.5909" rx="1.28972" ry="1.31818" fill="#2B4D84"/>
<ellipse cx="21.9252" cy="64.5909" rx="1.28972" ry="1.31818" fill="#2B4D84"/>
<ellipse cx="28.8038" cy="64.5909" rx="1.28972" ry="1.31818" fill="#2B4D84"/>
<ellipse cx="35.6823" cy="64.5909" rx="1.28972" ry="1.31818" fill="#2B4D84"/>
<ellipse cx="42.5607" cy="64.5909" rx="1.28972" ry="1.31818" fill="#2B4D84"/>
<ellipse cx="49.4391" cy="64.5909" rx="1.28972" ry="1.31818" fill="#2B4D84"/>
<ellipse cx="56.3178" cy="64.5909" rx="1.28972" ry="1.31818" fill="#2B4D84"/>
<ellipse cx="63.1962" cy="64.5909" rx="1.28972" ry="1.31818" fill="#2B4D84"/>
<ellipse cx="70.0749" cy="64.5909" rx="1.28972" ry="1.31818" fill="#2B4D84"/>
<ellipse cx="76.9533" cy="64.5909" rx="1.28972" ry="1.31818" fill="#2B4D84"/>
<ellipse cx="83.8317" cy="64.5909" rx="1.28972" ry="1.31818" fill="#2B4D84"/>
<ellipse cx="90.7104" cy="64.5909" rx="1.28972" ry="1.31818" fill="#2B4D84"/>
<ellipse cx="1.28972" cy="71.6212" rx="1.28972" ry="1.31818" fill="#2B4D84"/>
<ellipse cx="8.16814" cy="71.6212" rx="1.28972" ry="1.31818" fill="#2B4D84"/>
<ellipse cx="15.0467" cy="71.6212" rx="1.28972" ry="1.31818" fill="#2B4D84"/>
<ellipse cx="21.9252" cy="71.6212" rx="1.28972" ry="1.31818" fill="#2B4D84"/>
<ellipse cx="28.8038" cy="71.6212" rx="1.28972" ry="1.31818" fill="#2B4D84"/>
<ellipse cx="35.6823" cy="71.6212" rx="1.28972" ry="1.31818" fill="#2B4D84"/>
<ellipse cx="42.5607" cy="71.6212" rx="1.28972" ry="1.31818" fill="#2B4D84"/>
<ellipse cx="49.4391" cy="71.6212" rx="1.28972" ry="1.31818" fill="#2B4D84"/>
<ellipse cx="56.3178" cy="71.6212" rx="1.28972" ry="1.31818" fill="#2B4D84"/>
<ellipse cx="63.1962" cy="71.6212" rx="1.28972" ry="1.31818" fill="#2B4D84"/>
<ellipse cx="70.0749" cy="71.6212" rx="1.28972" ry="1.31818" fill="#2B4D84"/>
<ellipse cx="76.9533" cy="71.6212" rx="1.28972" ry="1.31818" fill="#2B4D84"/>
<ellipse cx="83.8317" cy="71.6212" rx="1.28972" ry="1.31818" fill="#2B4D84"/>
<ellipse cx="90.7104" cy="71.6212" rx="1.28972" ry="1.31818" fill="#2B4D84"/>
<ellipse cx="1.28972" cy="78.6515" rx="1.28972" ry="1.31818" fill="#2B4D84"/>
<ellipse cx="8.16814" cy="78.6515" rx="1.28972" ry="1.31818" fill="#2B4D84"/>
<ellipse cx="15.0467" cy="78.6515" rx="1.28972" ry="1.31818" fill="#2B4D84"/>
<ellipse cx="21.9252" cy="78.6515" rx="1.28972" ry="1.31818" fill="#2B4D84"/>
<ellipse cx="28.8038" cy="78.6515" rx="1.28972" ry="1.31818" fill="#2B4D84"/>
<ellipse cx="35.6823" cy="78.6515" rx="1.28972" ry="1.31818" fill="#2B4D84"/>
<ellipse cx="42.5607" cy="78.6515" rx="1.28972" ry="1.31818" fill="#2B4D84"/>
<ellipse cx="49.4391" cy="78.6515" rx="1.28972" ry="1.31818" fill="#2B4D84"/>
<ellipse cx="56.3178" cy="78.6515" rx="1.28972" ry="1.31818" fill="#2B4D84"/>
<ellipse cx="63.1962" cy="78.6515" rx="1.28972" ry="1.31818" fill="#2B4D84"/>
<ellipse cx="70.0749" cy="78.6515" rx="1.28972" ry="1.31818" fill="#2B4D84"/>
<ellipse cx="76.9533" cy="78.6515" rx="1.28972" ry="1.31818" fill="#2B4D84"/>
<ellipse cx="83.8317" cy="78.6515" rx="1.28972" ry="1.31818" fill="#2B4D84"/>
<ellipse cx="90.7104" cy="78.6515" rx="1.28972" ry="1.31818" fill="#2B4D84"/>
<ellipse cx="1.28972" cy="85.6818" rx="1.28972" ry="1.31818" fill="#2B4D84"/>
<ellipse cx="8.16814" cy="85.6818" rx="1.28972" ry="1.31818" fill="#2B4D84"/>
<ellipse cx="15.0467" cy="85.6818" rx="1.28972" ry="1.31818" fill="#2B4D84"/>
<ellipse cx="21.9252" cy="85.6818" rx="1.28972" ry="1.31818" fill="#2B4D84"/>
<ellipse cx="28.8038" cy="85.6818" rx="1.28972" ry="1.31818" fill="#2B4D84"/>
<ellipse cx="35.6823" cy="85.6818" rx="1.28972" ry="1.31818" fill="#2B4D84"/>
<ellipse cx="42.5607" cy="85.6818" rx="1.28972" ry="1.31818" fill="#2B4D84"/>
<ellipse cx="49.4391" cy="85.6818" rx="1.28972" ry="1.31818" fill="#2B4D84"/>
<ellipse cx="56.3178" cy="85.6818" rx="1.28972" ry="1.31818" fill="#2B4D84"/>
<ellipse cx="63.1962" cy="85.6818" rx="1.28972" ry="1.31818" fill="#2B4D84"/>
<ellipse cx="70.0749" cy="85.6818" rx="1.28972" ry="1.31818" fill="#2B4D84"/>
<ellipse cx="76.9533" cy="85.6818" rx="1.28972" ry="1.31818" fill="#2B4D84"/>
<ellipse cx="83.8317" cy="85.6818" rx="1.28972" ry="1.31818" fill="#2B4D84"/>
<ellipse cx="90.7104" cy="85.6818" rx="1.28972" ry="1.31818" fill="#2B4D84"/>
</g>
</svg>
