<svg width="51" height="64" viewBox="0 0 51 64" fill="none" xmlns="http://www.w3.org/2000/svg">
<path fill-rule="evenodd" clip-rule="evenodd" d="M1.29087 62.4147C0.41273 61.535 -0.00147621 60.5307 3.95263e-06 59.31V4.40176C3.95263e-06 3.17771 0.415713 2.17164 1.29392 1.2919C2.17197 0.412309 3.17321 -0.00147551 4.38904 3.95288e-06H24.0073V2.70284H2.69218V9.15103H24.0073V11.8539H2.69218V51.8558H36.5402V45.7551H39.2324V59.3079C39.2324 60.532 38.8166 61.538 37.9384 62.4178C37.0604 63.2974 36.0591 63.7112 34.8433 63.7097H4.39111C3.17191 63.7097 2.16899 63.2944 1.29087 62.4147ZM2.69218 54.5587V61.0068H36.5402V54.5587H2.69218Z" fill="#2B4D84"/>
<path d="M37.9116 34.6774H37.9032C37.6813 34.6774 37.4991 34.6433 37.3439 34.588C37.2538 34.5558 37.1322 34.4898 36.982 34.3424L36.9803 34.3407L26.1435 23.6046C25.9368 23.3999 25.8064 23.1406 25.8064 22.6901C25.8064 22.2396 25.9368 21.9804 26.1435 21.7757C26.3627 21.5585 26.6428 21.4196 27.1098 21.4065C27.5015 21.3956 27.7267 21.5037 27.9326 21.7256L27.9564 21.7511L36.572 30.2866V7.77335C36.572 7.34648 36.6997 7.06633 36.9482 6.82012C37.1963 6.57428 37.4754 6.45061 37.8992 6.45161H37.9032C38.3314 6.45161 38.6128 6.57706 38.8612 6.82311C39.1095 7.0691 39.2354 7.34702 39.2344 7.76943V30.2866L47.8252 21.7757C48.0316 21.5712 48.2918 21.443 48.744 21.443C49.1962 21.443 49.4565 21.5712 49.6629 21.7757C49.8695 21.9804 49.9999 22.2396 49.9999 22.6901C49.9999 23.1406 49.8695 23.3999 49.6629 23.6046L38.822 34.3447C38.671 34.4942 38.5501 34.5597 38.4624 34.5909C38.3101 34.6453 38.1308 34.6785 37.9116 34.6774Z" fill="#0091FF" stroke="#0091FF"/>
</svg>
