<svg width="49" height="63" viewBox="0 0 49 63" fill="none" xmlns="http://www.w3.org/2000/svg">
<path fill-rule="evenodd" clip-rule="evenodd" d="M25.3845 30.5C25.3845 24.1461 30.553 19 36.9345 19C43.3161 19 48.4845 24.1461 48.4845 30.5C48.4845 36.8539 43.3161 42 36.9345 42C30.553 42 25.3845 36.8539 25.3845 30.5ZM29.8495 35.4949L41.9512 23.4457L40.8984 22.9066C39.7099 22.298 38.3961 21.9153 36.9345 21.9153C34.6478 21.9153 32.4548 22.8198 30.8378 24.4297C29.2209 26.0396 28.3125 28.2232 28.3125 30.5C28.3125 31.9552 28.6969 33.2634 29.3081 34.4467L29.8495 35.4949ZM44.0195 25.5051L31.9179 37.5543L32.9707 38.0934C34.1591 38.702 35.473 39.0847 36.9345 39.0847C38.0668 39.0847 39.188 38.8626 40.234 38.4312C41.2801 37.9998 42.2306 37.3675 43.0312 36.5703C43.8318 35.7731 44.4669 34.8268 44.9002 33.7852C45.3335 32.7437 45.5565 31.6274 45.5565 30.5C45.5565 29.0448 45.1722 27.7366 44.561 26.5533L44.0195 25.5051Z" fill="#0091FF"/>
<path fill-rule="evenodd" clip-rule="evenodd" d="M2.64883 51.2869H36.1204V49.5944C36.1204 48.8629 36.7134 48.27 37.4448 48.27C38.1763 48.27 38.7692 48.8629 38.7692 49.5944V58.6519C38.7692 61.0431 36.8113 63 34.4348 63H4.33445C1.95796 63 0 61.0431 0 58.6519V4.34813C0 1.9569 1.95796 0 4.33445 0H34.4348C36.8113 0 38.7692 1.9569 38.7692 4.34813V13.4056C38.7692 14.137 38.1763 14.73 37.4448 14.73C36.7134 14.73 36.1204 14.137 36.1204 13.4056V11.7131H2.64883V51.2869ZM36.1204 4.66251C36.1204 3.55794 35.225 2.66251 34.1204 2.66251H4.64883C3.54426 2.66251 2.64883 3.55794 2.64883 4.66251V9.05062H36.1204V4.66251ZM2.64883 58.3375C2.64883 59.4421 3.54426 60.3375 4.64883 60.3375H34.1204C35.225 60.3375 36.1204 59.4421 36.1204 58.3375V53.9494H2.64883V58.3375Z" fill="#2B4D84"/>
</svg>
