<svg width="200" height="189" viewBox="0 0 200 189" fill="none" xmlns="http://www.w3.org/2000/svg">
<g opacity="0.2">
<ellipse cx="2.80374" cy="2.86364" rx="2.80374" ry="2.86364" fill="#2B4D84"/>
<ellipse cx="17.7569" cy="2.86364" rx="2.80374" ry="2.86364" fill="#2B4D84"/>
<ellipse cx="32.7102" cy="2.86364" rx="2.80374" ry="2.86364" fill="#2B4D84"/>
<ellipse cx="47.6636" cy="2.86364" rx="2.80374" ry="2.86364" fill="#2B4D84"/>
<ellipse cx="62.6167" cy="2.86364" rx="2.80374" ry="2.86364" fill="#2B4D84"/>
<ellipse cx="77.5701" cy="2.86364" rx="2.80374" ry="2.86364" fill="#2B4D84"/>
<ellipse cx="92.5232" cy="2.86364" rx="2.80374" ry="2.86364" fill="#2B4D84"/>
<ellipse cx="107.477" cy="2.86364" rx="2.80374" ry="2.86364" fill="#2B4D84"/>
<ellipse cx="122.43" cy="2.86364" rx="2.80374" ry="2.86364" fill="#2B4D84"/>
<ellipse cx="137.383" cy="2.86364" rx="2.80374" ry="2.86364" fill="#2B4D84"/>
<ellipse cx="152.336" cy="2.86364" rx="2.80374" ry="2.86364" fill="#2B4D84"/>
<ellipse cx="167.29" cy="2.86364" rx="2.80374" ry="2.86364" fill="#2B4D84"/>
<ellipse cx="182.243" cy="2.86364" rx="2.80374" ry="2.86364" fill="#2B4D84"/>
<ellipse cx="197.196" cy="2.86364" rx="2.80374" ry="2.86364" fill="#2B4D84"/>
<ellipse cx="2.80374" cy="18.1365" rx="2.80374" ry="2.86364" fill="#2B4D84"/>
<ellipse cx="17.7569" cy="18.1365" rx="2.80374" ry="2.86364" fill="#2B4D84"/>
<ellipse cx="32.7102" cy="18.1365" rx="2.80374" ry="2.86364" fill="#2B4D84"/>
<ellipse cx="47.6636" cy="18.1365" rx="2.80374" ry="2.86364" fill="#2B4D84"/>
<ellipse cx="62.6167" cy="18.1365" rx="2.80374" ry="2.86364" fill="#2B4D84"/>
<ellipse cx="77.5701" cy="18.1365" rx="2.80374" ry="2.86364" fill="#2B4D84"/>
<ellipse cx="92.5232" cy="18.1365" rx="2.80374" ry="2.86364" fill="#2B4D84"/>
<ellipse cx="107.477" cy="18.1365" rx="2.80374" ry="2.86364" fill="#2B4D84"/>
<ellipse cx="122.43" cy="18.1365" rx="2.80374" ry="2.86364" fill="#2B4D84"/>
<ellipse cx="137.383" cy="18.1365" rx="2.80374" ry="2.86364" fill="#2B4D84"/>
<ellipse cx="152.336" cy="18.1365" rx="2.80374" ry="2.86364" fill="#2B4D84"/>
<ellipse cx="167.29" cy="18.1365" rx="2.80374" ry="2.86364" fill="#2B4D84"/>
<ellipse cx="182.243" cy="18.1365" rx="2.80374" ry="2.86364" fill="#2B4D84"/>
<ellipse cx="197.196" cy="18.1365" rx="2.80374" ry="2.86364" fill="#2B4D84"/>
<ellipse cx="2.80374" cy="33.409" rx="2.80374" ry="2.86364" fill="#2B4D84"/>
<ellipse cx="17.7569" cy="33.409" rx="2.80374" ry="2.86364" fill="#2B4D84"/>
<ellipse cx="32.7102" cy="33.409" rx="2.80374" ry="2.86364" fill="#2B4D84"/>
<ellipse cx="47.6636" cy="33.409" rx="2.80374" ry="2.86364" fill="#2B4D84"/>
<ellipse cx="62.6167" cy="33.409" rx="2.80374" ry="2.86364" fill="#2B4D84"/>
<ellipse cx="77.5701" cy="33.409" rx="2.80374" ry="2.86364" fill="#2B4D84"/>
<ellipse cx="92.5232" cy="33.409" rx="2.80374" ry="2.86364" fill="#2B4D84"/>
<ellipse cx="107.477" cy="33.409" rx="2.80374" ry="2.86364" fill="#2B4D84"/>
<ellipse cx="122.43" cy="33.409" rx="2.80374" ry="2.86364" fill="#2B4D84"/>
<ellipse cx="137.383" cy="33.409" rx="2.80374" ry="2.86364" fill="#2B4D84"/>
<ellipse cx="152.336" cy="33.409" rx="2.80374" ry="2.86364" fill="#2B4D84"/>
<ellipse cx="167.29" cy="33.409" rx="2.80374" ry="2.86364" fill="#2B4D84"/>
<ellipse cx="182.243" cy="33.409" rx="2.80374" ry="2.86364" fill="#2B4D84"/>
<ellipse cx="197.196" cy="33.409" rx="2.80374" ry="2.86364" fill="#2B4D84"/>
<ellipse cx="2.80374" cy="48.6819" rx="2.80374" ry="2.86364" fill="#2B4D84"/>
<ellipse cx="17.7569" cy="48.6819" rx="2.80374" ry="2.86364" fill="#2B4D84"/>
<ellipse cx="32.7102" cy="48.6819" rx="2.80374" ry="2.86364" fill="#2B4D84"/>
<ellipse cx="47.6636" cy="48.6819" rx="2.80374" ry="2.86364" fill="#2B4D84"/>
<ellipse cx="62.6167" cy="48.6819" rx="2.80374" ry="2.86364" fill="#2B4D84"/>
<ellipse cx="77.5701" cy="48.6819" rx="2.80374" ry="2.86364" fill="#2B4D84"/>
<ellipse cx="92.5232" cy="48.6819" rx="2.80374" ry="2.86364" fill="#2B4D84"/>
<ellipse cx="107.477" cy="48.6819" rx="2.80374" ry="2.86364" fill="#2B4D84"/>
<ellipse cx="122.43" cy="48.6819" rx="2.80374" ry="2.86364" fill="#2B4D84"/>
<ellipse cx="137.383" cy="48.6819" rx="2.80374" ry="2.86364" fill="#2B4D84"/>
<ellipse cx="152.336" cy="48.6819" rx="2.80374" ry="2.86364" fill="#2B4D84"/>
<ellipse cx="167.29" cy="48.6819" rx="2.80374" ry="2.86364" fill="#2B4D84"/>
<ellipse cx="182.243" cy="48.6819" rx="2.80374" ry="2.86364" fill="#2B4D84"/>
<ellipse cx="197.196" cy="48.6819" rx="2.80374" ry="2.86364" fill="#2B4D84"/>
<ellipse cx="2.80374" cy="63.9546" rx="2.80374" ry="2.86364" fill="#2B4D84"/>
<ellipse cx="17.7569" cy="63.9546" rx="2.80374" ry="2.86364" fill="#2B4D84"/>
<ellipse cx="32.7102" cy="63.9546" rx="2.80374" ry="2.86364" fill="#2B4D84"/>
<ellipse cx="47.6636" cy="63.9546" rx="2.80374" ry="2.86364" fill="#2B4D84"/>
<ellipse cx="62.6167" cy="63.9546" rx="2.80374" ry="2.86364" fill="#2B4D84"/>
<ellipse cx="77.5701" cy="63.9546" rx="2.80374" ry="2.86364" fill="#2B4D84"/>
<ellipse cx="92.5232" cy="63.9546" rx="2.80374" ry="2.86364" fill="#2B4D84"/>
<ellipse cx="107.477" cy="63.9546" rx="2.80374" ry="2.86364" fill="#2B4D84"/>
<ellipse cx="122.43" cy="63.9546" rx="2.80374" ry="2.86364" fill="#2B4D84"/>
<ellipse cx="137.383" cy="63.9546" rx="2.80374" ry="2.86364" fill="#2B4D84"/>
<ellipse cx="152.336" cy="63.9546" rx="2.80374" ry="2.86364" fill="#2B4D84"/>
<ellipse cx="167.29" cy="63.9546" rx="2.80374" ry="2.86364" fill="#2B4D84"/>
<ellipse cx="182.243" cy="63.9546" rx="2.80374" ry="2.86364" fill="#2B4D84"/>
<ellipse cx="197.196" cy="63.9546" rx="2.80374" ry="2.86364" fill="#2B4D84"/>
<ellipse cx="2.80374" cy="79.2272" rx="2.80374" ry="2.86364" fill="#2B4D84"/>
<ellipse cx="17.7569" cy="79.2272" rx="2.80374" ry="2.86364" fill="#2B4D84"/>
<ellipse cx="32.7102" cy="79.2272" rx="2.80374" ry="2.86364" fill="#2B4D84"/>
<ellipse cx="47.6636" cy="79.2272" rx="2.80374" ry="2.86364" fill="#2B4D84"/>
<ellipse cx="62.6167" cy="79.2272" rx="2.80374" ry="2.86364" fill="#2B4D84"/>
<ellipse cx="77.5701" cy="79.2272" rx="2.80374" ry="2.86364" fill="#2B4D84"/>
<ellipse cx="92.5232" cy="79.2272" rx="2.80374" ry="2.86364" fill="#2B4D84"/>
<ellipse cx="107.477" cy="79.2272" rx="2.80374" ry="2.86364" fill="#2B4D84"/>
<ellipse cx="122.43" cy="79.2272" rx="2.80374" ry="2.86364" fill="#2B4D84"/>
<ellipse cx="137.383" cy="79.2272" rx="2.80374" ry="2.86364" fill="#2B4D84"/>
<ellipse cx="152.336" cy="79.2272" rx="2.80374" ry="2.86364" fill="#2B4D84"/>
<ellipse cx="167.29" cy="79.2272" rx="2.80374" ry="2.86364" fill="#2B4D84"/>
<ellipse cx="182.243" cy="79.2272" rx="2.80374" ry="2.86364" fill="#2B4D84"/>
<ellipse cx="197.196" cy="79.2272" rx="2.80374" ry="2.86364" fill="#2B4D84"/>
<ellipse cx="2.80374" cy="94.5" rx="2.80374" ry="2.86364" fill="#2B4D84"/>
<ellipse cx="17.7569" cy="94.5" rx="2.80374" ry="2.86364" fill="#2B4D84"/>
<ellipse cx="32.7102" cy="94.5" rx="2.80374" ry="2.86364" fill="#2B4D84"/>
<ellipse cx="47.6636" cy="94.5" rx="2.80374" ry="2.86364" fill="#2B4D84"/>
<ellipse cx="62.6167" cy="94.5" rx="2.80374" ry="2.86364" fill="#2B4D84"/>
<ellipse cx="77.5701" cy="94.5" rx="2.80374" ry="2.86364" fill="#2B4D84"/>
<ellipse cx="92.5232" cy="94.5" rx="2.80374" ry="2.86364" fill="#2B4D84"/>
<ellipse cx="107.477" cy="94.5" rx="2.80374" ry="2.86364" fill="#2B4D84"/>
<ellipse cx="122.43" cy="94.5" rx="2.80374" ry="2.86364" fill="#2B4D84"/>
<ellipse cx="137.383" cy="94.5" rx="2.80374" ry="2.86364" fill="#2B4D84"/>
<ellipse cx="152.336" cy="94.5" rx="2.80374" ry="2.86364" fill="#2B4D84"/>
<ellipse cx="167.29" cy="94.5" rx="2.80374" ry="2.86364" fill="#2B4D84"/>
<ellipse cx="182.243" cy="94.5" rx="2.80374" ry="2.86364" fill="#2B4D84"/>
<ellipse cx="197.196" cy="94.5" rx="2.80374" ry="2.86364" fill="#2B4D84"/>
<ellipse cx="2.80374" cy="109.773" rx="2.80374" ry="2.86364" fill="#2B4D84"/>
<ellipse cx="17.7569" cy="109.773" rx="2.80374" ry="2.86364" fill="#2B4D84"/>
<ellipse cx="32.7102" cy="109.773" rx="2.80374" ry="2.86364" fill="#2B4D84"/>
<ellipse cx="47.6636" cy="109.773" rx="2.80374" ry="2.86364" fill="#2B4D84"/>
<ellipse cx="62.6167" cy="109.773" rx="2.80374" ry="2.86364" fill="#2B4D84"/>
<ellipse cx="77.5701" cy="109.773" rx="2.80374" ry="2.86364" fill="#2B4D84"/>
<ellipse cx="92.5232" cy="109.773" rx="2.80374" ry="2.86364" fill="#2B4D84"/>
<ellipse cx="107.477" cy="109.773" rx="2.80374" ry="2.86364" fill="#2B4D84"/>
<ellipse cx="122.43" cy="109.773" rx="2.80374" ry="2.86364" fill="#2B4D84"/>
<ellipse cx="137.383" cy="109.773" rx="2.80374" ry="2.86364" fill="#2B4D84"/>
<ellipse cx="152.336" cy="109.773" rx="2.80374" ry="2.86364" fill="#2B4D84"/>
<ellipse cx="167.29" cy="109.773" rx="2.80374" ry="2.86364" fill="#2B4D84"/>
<ellipse cx="182.243" cy="109.773" rx="2.80374" ry="2.86364" fill="#2B4D84"/>
<ellipse cx="197.196" cy="109.773" rx="2.80374" ry="2.86364" fill="#2B4D84"/>
<ellipse cx="2.80374" cy="125.046" rx="2.80374" ry="2.86364" fill="#2B4D84"/>
<ellipse cx="17.7569" cy="125.046" rx="2.80374" ry="2.86364" fill="#2B4D84"/>
<ellipse cx="32.7102" cy="125.046" rx="2.80374" ry="2.86364" fill="#2B4D84"/>
<ellipse cx="47.6636" cy="125.046" rx="2.80374" ry="2.86364" fill="#2B4D84"/>
<ellipse cx="62.6167" cy="125.046" rx="2.80374" ry="2.86364" fill="#2B4D84"/>
<ellipse cx="77.5701" cy="125.046" rx="2.80374" ry="2.86364" fill="#2B4D84"/>
<ellipse cx="92.5232" cy="125.046" rx="2.80374" ry="2.86364" fill="#2B4D84"/>
<ellipse cx="107.477" cy="125.046" rx="2.80374" ry="2.86364" fill="#2B4D84"/>
<ellipse cx="122.43" cy="125.046" rx="2.80374" ry="2.86364" fill="#2B4D84"/>
<ellipse cx="137.383" cy="125.046" rx="2.80374" ry="2.86364" fill="#2B4D84"/>
<ellipse cx="152.336" cy="125.046" rx="2.80374" ry="2.86364" fill="#2B4D84"/>
<ellipse cx="167.29" cy="125.046" rx="2.80374" ry="2.86364" fill="#2B4D84"/>
<ellipse cx="182.243" cy="125.046" rx="2.80374" ry="2.86364" fill="#2B4D84"/>
<ellipse cx="197.196" cy="125.046" rx="2.80374" ry="2.86364" fill="#2B4D84"/>
<ellipse cx="2.80374" cy="140.318" rx="2.80374" ry="2.86364" fill="#2B4D84"/>
<ellipse cx="17.7569" cy="140.318" rx="2.80374" ry="2.86364" fill="#2B4D84"/>
<ellipse cx="32.7102" cy="140.318" rx="2.80374" ry="2.86364" fill="#2B4D84"/>
<ellipse cx="47.6636" cy="140.318" rx="2.80374" ry="2.86364" fill="#2B4D84"/>
<ellipse cx="62.6167" cy="140.318" rx="2.80374" ry="2.86364" fill="#2B4D84"/>
<ellipse cx="77.5701" cy="140.318" rx="2.80374" ry="2.86364" fill="#2B4D84"/>
<ellipse cx="92.5232" cy="140.318" rx="2.80374" ry="2.86364" fill="#2B4D84"/>
<ellipse cx="107.477" cy="140.318" rx="2.80374" ry="2.86364" fill="#2B4D84"/>
<ellipse cx="122.43" cy="140.318" rx="2.80374" ry="2.86364" fill="#2B4D84"/>
<ellipse cx="137.383" cy="140.318" rx="2.80374" ry="2.86364" fill="#2B4D84"/>
<ellipse cx="152.336" cy="140.318" rx="2.80374" ry="2.86364" fill="#2B4D84"/>
<ellipse cx="167.29" cy="140.318" rx="2.80374" ry="2.86364" fill="#2B4D84"/>
<ellipse cx="182.243" cy="140.318" rx="2.80374" ry="2.86364" fill="#2B4D84"/>
<ellipse cx="197.196" cy="140.318" rx="2.80374" ry="2.86364" fill="#2B4D84"/>
<ellipse cx="2.80374" cy="155.591" rx="2.80374" ry="2.86364" fill="#2B4D84"/>
<ellipse cx="17.7569" cy="155.591" rx="2.80374" ry="2.86364" fill="#2B4D84"/>
<ellipse cx="32.7102" cy="155.591" rx="2.80374" ry="2.86364" fill="#2B4D84"/>
<ellipse cx="47.6636" cy="155.591" rx="2.80374" ry="2.86364" fill="#2B4D84"/>
<ellipse cx="62.6167" cy="155.591" rx="2.80374" ry="2.86364" fill="#2B4D84"/>
<ellipse cx="77.5701" cy="155.591" rx="2.80374" ry="2.86364" fill="#2B4D84"/>
<ellipse cx="92.5232" cy="155.591" rx="2.80374" ry="2.86364" fill="#2B4D84"/>
<ellipse cx="107.477" cy="155.591" rx="2.80374" ry="2.86364" fill="#2B4D84"/>
<ellipse cx="122.43" cy="155.591" rx="2.80374" ry="2.86364" fill="#2B4D84"/>
<ellipse cx="137.383" cy="155.591" rx="2.80374" ry="2.86364" fill="#2B4D84"/>
<ellipse cx="152.336" cy="155.591" rx="2.80374" ry="2.86364" fill="#2B4D84"/>
<ellipse cx="167.29" cy="155.591" rx="2.80374" ry="2.86364" fill="#2B4D84"/>
<ellipse cx="182.243" cy="155.591" rx="2.80374" ry="2.86364" fill="#2B4D84"/>
<ellipse cx="197.196" cy="155.591" rx="2.80374" ry="2.86364" fill="#2B4D84"/>
<ellipse cx="2.80374" cy="170.864" rx="2.80374" ry="2.86364" fill="#2B4D84"/>
<ellipse cx="17.7569" cy="170.864" rx="2.80374" ry="2.86364" fill="#2B4D84"/>
<ellipse cx="32.7102" cy="170.864" rx="2.80374" ry="2.86364" fill="#2B4D84"/>
<ellipse cx="47.6636" cy="170.864" rx="2.80374" ry="2.86364" fill="#2B4D84"/>
<ellipse cx="62.6167" cy="170.864" rx="2.80374" ry="2.86364" fill="#2B4D84"/>
<ellipse cx="77.5701" cy="170.864" rx="2.80374" ry="2.86364" fill="#2B4D84"/>
<ellipse cx="92.5232" cy="170.864" rx="2.80374" ry="2.86364" fill="#2B4D84"/>
<ellipse cx="107.477" cy="170.864" rx="2.80374" ry="2.86364" fill="#2B4D84"/>
<ellipse cx="122.43" cy="170.864" rx="2.80374" ry="2.86364" fill="#2B4D84"/>
<ellipse cx="137.383" cy="170.864" rx="2.80374" ry="2.86364" fill="#2B4D84"/>
<ellipse cx="152.336" cy="170.864" rx="2.80374" ry="2.86364" fill="#2B4D84"/>
<ellipse cx="167.29" cy="170.864" rx="2.80374" ry="2.86364" fill="#2B4D84"/>
<ellipse cx="182.243" cy="170.864" rx="2.80374" ry="2.86364" fill="#2B4D84"/>
<ellipse cx="197.196" cy="170.864" rx="2.80374" ry="2.86364" fill="#2B4D84"/>
<ellipse cx="2.80374" cy="186.136" rx="2.80374" ry="2.86364" fill="#2B4D84"/>
<ellipse cx="17.7569" cy="186.136" rx="2.80374" ry="2.86364" fill="#2B4D84"/>
<ellipse cx="32.7102" cy="186.136" rx="2.80374" ry="2.86364" fill="#2B4D84"/>
<ellipse cx="47.6636" cy="186.136" rx="2.80374" ry="2.86364" fill="#2B4D84"/>
<ellipse cx="62.6167" cy="186.136" rx="2.80374" ry="2.86364" fill="#2B4D84"/>
<ellipse cx="77.5701" cy="186.136" rx="2.80374" ry="2.86364" fill="#2B4D84"/>
<ellipse cx="92.5232" cy="186.136" rx="2.80374" ry="2.86364" fill="#2B4D84"/>
<ellipse cx="107.477" cy="186.136" rx="2.80374" ry="2.86364" fill="#2B4D84"/>
<ellipse cx="122.43" cy="186.136" rx="2.80374" ry="2.86364" fill="#2B4D84"/>
<ellipse cx="137.383" cy="186.136" rx="2.80374" ry="2.86364" fill="#2B4D84"/>
<ellipse cx="152.336" cy="186.136" rx="2.80374" ry="2.86364" fill="#2B4D84"/>
<ellipse cx="167.29" cy="186.136" rx="2.80374" ry="2.86364" fill="#2B4D84"/>
<ellipse cx="182.243" cy="186.136" rx="2.80374" ry="2.86364" fill="#2B4D84"/>
<ellipse cx="197.196" cy="186.136" rx="2.80374" ry="2.86364" fill="#2B4D84"/>
</g>
</svg>
