<svg width="63" height="63" viewBox="0 0 63 63" fill="none" xmlns="http://www.w3.org/2000/svg">
<path fill-rule="evenodd" clip-rule="evenodd" d="M39.5035 3.31515C37.3808 1.1925 34.5019 0 31.5 0C28.4981 0 25.6192 1.1925 23.4965 3.31515C21.3739 5.43781 20.1814 8.31675 20.1814 11.3186C20.1814 14.3205 21.3739 17.1995 23.4965 19.3221C25.6192 21.4448 28.4981 22.6373 31.5 22.6373C34.5019 22.6373 37.3808 21.4448 39.5035 19.3221C41.6261 17.1995 42.8186 14.3205 42.8186 11.3186C42.8186 8.31675 41.6261 5.43781 39.5035 3.31515ZM37.7669 17.5855C36.1048 19.2476 34 20.1814 31.5 20.1814C28.5 20.1814 26.8952 19.2476 25.2331 17.5855C23.571 15.9234 22.6373 13.6692 22.6373 11.3186C22.6373 8.96811 23.571 6.71384 25.2331 5.05176C26.8952 3.38968 29.1495 2.45593 31.5 2.45593C33.8505 2.45593 36.1048 3.38968 37.7669 5.05176C39.429 6.71384 40.3627 8.96811 40.3627 11.3186C40.3627 13.6692 39.429 15.9234 37.7669 17.5855ZM14.0728 22.0188C12.8963 20.8423 11.3006 20.1814 9.63686 20.1814C7.97308 20.1814 6.37744 20.8423 5.20097 22.0188C4.02449 23.1952 3.36356 24.7909 3.36356 26.4547C3.36356 28.1184 4.02449 29.7141 5.20097 30.8906C6.37744 32.067 7.97308 32.728 9.63686 32.728C11.3006 32.728 12.8963 32.067 14.0728 30.8906C15.2492 29.7141 15.9102 28.1184 15.9102 26.4547C15.9102 24.7909 15.2492 23.1952 14.0728 22.0188ZM6.93757 23.7554C7.65347 23.0395 8.62444 22.6373 9.63686 22.6373C10.6493 22.6373 11.6203 23.0395 12.3362 23.7554C13.0521 24.4713 13.4542 25.4422 13.4542 26.4547C13.4542 27.4671 13.0521 28.4381 12.3362 29.154C11.6203 29.8699 10.6493 30.272 9.63686 30.272C8.62444 30.272 7.65347 29.8699 6.93757 29.154C6.22168 28.4381 5.81949 27.4671 5.81949 26.4547C5.81949 25.4422 6.22168 24.4713 6.93757 23.7554ZM19.2737 44.9239V63H16.8178V44.9542C16.8178 41.0603 18.3647 37.3258 21.1181 34.5723C23.8716 31.8189 27.606 30.272 31.5 30.272C35.3377 30.272 39.0205 31.7745 41.7619 34.4537C40.8399 34.6821 39.9505 34.9929 39.1019 35.378C37.1432 33.823 34.7419 32.8968 32.2173 32.7485L32.185 32.7466L31.5304 32.728H31.5001C28.3816 32.7278 25.3808 33.9193 23.1118 36.0587C20.8429 38.1982 19.4772 41.1238 19.2942 44.237L19.2923 44.2693L19.2737 44.9239ZM60.5441 53.2469V63H63V49.9996C63 47.4437 61.9847 44.9925 60.1774 43.1853C59.8926 42.9005 59.5918 42.6353 59.2771 42.3907C60.3781 44.5201 61 46.9374 61 49.5C61 50.792 60.8419 52.047 60.5441 53.2469ZM9.28303 42.8274C9.36142 41.999 9.4864 41.1762 9.65722 40.3627L9.63686 40.3627C7.08101 40.3627 4.62984 41.378 2.82257 43.1853C1.01531 44.9925 0 47.4437 0 49.9996V63H2.45593V49.9481L2.48446 49.3571L2.48948 49.3054C2.66197 47.5294 3.48949 45.8813 4.8108 44.6821C6.04453 43.5624 7.62624 42.909 9.28303 42.8274ZM53.3631 20.1814C55.0269 20.1814 56.6226 20.8423 57.799 22.0188C58.9755 23.1952 59.6364 24.7909 59.6364 26.4547C59.6364 28.1184 58.9755 29.7141 57.799 30.8906C56.6226 32.067 55.0269 32.728 53.3631 32.728C51.6994 32.728 50.1037 32.067 48.9272 30.8906C47.7508 29.7141 47.0898 28.1184 47.0898 26.4547C47.0898 24.7909 47.7508 23.1952 48.9272 22.0188C50.1037 20.8423 51.6994 20.1814 53.3631 20.1814ZM53.3631 22.6373C52.3507 22.6373 51.3797 23.0395 50.6638 23.7554C49.9479 24.4713 49.5458 25.4422 49.5458 26.4547C49.5458 27.4671 49.9479 28.4381 50.6638 29.154C51.3797 29.8699 52.3507 30.272 53.3631 30.272C54.3756 30.272 55.3465 29.8699 56.0624 29.154C56.7783 28.4381 57.1805 27.4671 57.1805 26.4547C57.1805 25.4422 56.7783 24.4713 56.0624 23.7554C55.3465 23.0395 54.3756 22.6373 53.3631 22.6373Z" fill="#2B4D84"/>
<circle cx="45.5" cy="49.5" r="12" stroke="#0091FF" stroke-width="3"/>
<path fill-rule="evenodd" clip-rule="evenodd" d="M45.5 44C44.6716 44 44 44.6716 44 45.5V48L41.5 48C40.6716 48 40 48.6716 40 49.5C40 50.3284 40.6716 51 41.5 51H44V53.5C44 54.3284 44.6716 55 45.5 55C46.3284 55 47 54.3284 47 53.5V51H49.5C50.3284 51 51 50.3284 51 49.5C51 48.6716 50.3284 48 49.5 48L47 48V45.5C47 44.6716 46.3284 44 45.5 44Z" fill="#0091FF"/>
</svg>
