<svg width="66" height="66" viewBox="0 0 66 66" fill="none" xmlns="http://www.w3.org/2000/svg">
<path d="M33 14V52M22.5 23.5V42.5M54 29.8333V36.1667M12 29.8333V36.1667M43.5 17.1667V48.8333" stroke="#0091FF" stroke-width="4" stroke-linecap="round" stroke-linejoin="round"/>
<path d="M64 4.06667V61.9333C64 62.4814 63.7823 63.0071 63.3947 63.3947C63.0071 63.7823 62.4814 64 61.9333 64H4.06667C3.51855 64 2.99289 63.7823 2.60531 63.3947C2.21774 63.0071 2 62.4814 2 61.9333V4.06667C2 3.51855 2.21774 2.99289 2.60531 2.60531C2.99289 2.21774 3.51855 2 4.06667 2H61.9333C62.4814 2 63.0071 2.21774 63.3947 2.60531C63.7823 2.99289 64 3.51855 64 4.06667Z" stroke="#2B4D84" stroke-width="3" stroke-linecap="round" stroke-linejoin="round"/>
</svg>
