<svg width="50" height="63" viewBox="0 0 50 63" fill="none" xmlns="http://www.w3.org/2000/svg">
<path d="M37.4516 35.9665C37.6032 36.134 37.721 36.3307 37.7981 36.5452C37.8752 36.7598 37.9101 36.988 37.9008 37.2165C37.8915 37.4451 37.8382 37.6695 37.744 37.8767C37.6497 38.0839 37.5164 38.2698 37.3518 38.4237C37.1872 38.5775 36.9945 38.6962 36.7849 38.7729C36.5754 38.8496 36.3531 38.8828 36.1309 38.8705C35.9088 38.8582 35.6913 38.8007 35.4909 38.7013C35.2906 38.602 35.1114 38.4627 34.9637 38.2915L27.7718 30.1569C26.5549 29.6854 25.2432 29.532 23.9544 29.7105C22.6656 29.889 21.4401 30.3938 20.3879 31.1796C20.0276 31.4498 19.5776 31.5616 19.137 31.4905C18.6965 31.4195 18.3014 31.1714 18.0387 30.8008C17.7761 30.4302 17.6673 29.9675 17.7364 29.5144C17.8055 29.0614 18.0468 28.6551 18.4072 28.385C20.1221 27.0971 22.1599 26.3412 24.2795 26.2069L21.5703 23.1415C19.524 23.6529 17.6096 24.6136 15.9585 25.9577C15.6083 26.233 15.1669 26.3557 14.7296 26.2996C14.2922 26.2435 13.8937 26.0129 13.62 25.6576C13.3464 25.3023 13.2193 24.8507 13.2663 24.4C13.3133 23.9493 13.5305 23.5357 13.8712 23.2481C15.4316 21.9787 17.1859 20.9842 19.0627 20.3051L16.6379 17.5681C14.7854 18.3811 13.0552 19.4619 11.4996 20.7776C11.3287 20.9216 11.1319 21.0297 10.9204 21.0955C10.7089 21.1613 10.4868 21.1837 10.2669 21.1613C10.047 21.1389 9.83357 21.0722 9.63874 20.9649C9.44392 20.8577 9.27154 20.712 9.13146 20.5363C8.99137 20.3606 8.88632 20.1582 8.82229 19.9407C8.75827 19.7232 8.73653 19.4948 8.75832 19.2687C8.78011 19.0426 8.845 18.8231 8.94928 18.6227C9.05356 18.4224 9.1952 18.2451 9.3661 18.1011C10.8705 16.8306 12.5164 15.7484 14.2691 14.8772L12.5502 12.9382C12.3986 12.7708 12.2809 12.5741 12.2038 12.3595C12.1267 12.1449 12.0918 11.9168 12.1011 11.6882C12.1104 11.4597 12.1637 11.2353 12.2579 11.0281C12.3521 10.8209 12.4854 10.6349 12.6501 10.4811C12.8147 10.3272 13.0074 10.2085 13.2169 10.1318C13.4265 10.0551 13.6488 10.0219 13.8709 10.0342C14.093 10.0465 14.3106 10.104 14.511 10.2034C14.7113 10.3028 14.8905 10.4421 15.0381 10.6132L37.4516 35.9665ZM25.0009 33.0956C24.5576 33.0956 24.1243 33.2307 23.7557 33.484C23.3871 33.7373 23.0998 34.0972 22.9302 34.5184C22.7606 34.9395 22.7162 35.403 22.8026 35.8501C22.8891 36.2972 23.1026 36.7078 23.4161 37.0302C23.7295 37.3525 24.1289 37.572 24.5637 37.661C24.9984 37.7499 25.4491 37.7043 25.8587 37.5298C26.2682 37.3554 26.6183 37.0599 26.8645 36.6809C27.1108 36.3019 27.2423 35.8563 27.2423 35.4004C27.2423 34.7891 27.0061 34.2029 26.5858 33.7706C26.1655 33.3384 25.5954 33.0956 25.0009 33.0956ZM34.0434 25.9577C34.3936 26.233 34.8349 26.3557 35.2723 26.2996C35.7097 26.2435 36.1081 26.0129 36.3818 25.6576C36.6555 25.3023 36.7825 24.8507 36.7356 24.4C36.6886 23.9493 36.4713 23.5357 36.1306 23.2481C34.557 21.9624 32.7833 20.9596 30.8845 20.282C30.4653 20.1397 30.0086 20.1727 29.6129 20.3737C29.2172 20.5748 28.9142 20.9278 28.7694 21.3566C28.6247 21.7854 28.6497 22.2555 28.8392 22.6655C29.0286 23.0755 29.3673 23.3923 29.782 23.5477C31.3242 24.0989 32.7648 24.9137 34.0434 25.9577ZM40.6358 18.1011C36.2254 14.3869 30.7015 12.3557 25.0009 12.3519C24.449 12.3519 23.8901 12.3707 23.3395 12.4081C23.1188 12.4231 22.9031 12.4827 22.7047 12.5835C22.5064 12.6843 22.3292 12.8242 22.1835 12.9954C22.0377 13.1665 21.9262 13.3655 21.8552 13.581C21.7843 13.7965 21.7553 14.0243 21.7699 14.2513C21.7845 14.4783 21.8425 14.7001 21.9405 14.9041C22.0385 15.108 22.1746 15.2902 22.341 15.4401C22.5074 15.5899 22.7009 15.7046 22.9105 15.7776C23.12 15.8506 23.3415 15.8804 23.5623 15.8654C24.0386 15.8322 24.5232 15.8164 25.0009 15.8164C29.9236 15.8191 34.6938 17.573 38.5023 20.7805C38.6729 20.9245 38.8695 21.0326 39.0807 21.0985C39.2919 21.1645 39.5137 21.187 39.7335 21.1648C39.9532 21.1426 40.1665 21.0761 40.3612 20.9691C40.5559 20.8622 40.7282 20.7168 40.8683 20.5413C41.0084 20.3659 41.1135 20.1638 41.1776 19.9465C41.2418 19.7293 41.2637 19.5012 41.2421 19.2753C41.2205 19.0494 41.1558 18.83 41.0518 18.6298C40.9478 18.4295 40.8064 18.2523 40.6358 18.1083V18.1011Z" fill="#0091FF"/>
<path d="M22.5 60.5487C22.5 61.1188 22.7634 61.6656 23.2322 62.0687C23.7011 62.4719 24.337 62.6984 25 62.6984C25.663 62.6984 26.2989 62.4719 26.7678 62.0687C27.2366 61.6656 27.5 61.1188 27.5 60.5487H22.5ZM22.5 57.6825V60.5487H27.5V57.6825H22.5Z" fill="#2B4D84"/>
<path fill-rule="evenodd" clip-rule="evenodd" d="M21.5021 48.9047V53.3001C21.5021 54 21.5028 54.4621 21.5301 54.8183C21.5564 55.1629 21.6029 55.3164 21.6456 55.4085L21.6477 55.4131C21.8372 55.826 22.2003 56.1544 22.6576 56.3264C22.7616 56.3649 22.9338 56.4062 23.3153 56.4296C23.711 56.4539 24.2241 56.4546 25 56.4546C25.7761 56.4546 26.2885 56.4539 26.6835 56.4293C27.0657 56.4055 27.2358 56.3637 27.3379 56.3251L27.3431 56.3232C27.801 56.1523 28.1651 55.8249 28.3558 55.4124C28.3985 55.3187 28.4443 55.1634 28.4703 54.8194C28.4972 54.4625 28.4979 53.9998 28.4979 53.3001V48.9047H31.25V53.3409C31.25 53.9889 31.25 54.5367 31.216 54.988C31.1803 55.4599 31.1029 55.9157 30.8988 56.3612L30.8975 56.3641C30.4274 57.3833 29.5285 58.193 28.3977 58.6156C27.9028 58.8019 27.3963 58.8727 26.8729 58.9053C26.3719 58.9364 25.7639 58.9364 25.0458 58.9364H24.9547C24.2362 58.9364 23.6287 58.9364 23.1283 58.9057C22.6051 58.8736 22.0996 58.8037 21.6055 58.6197L21.6024 58.6186C20.4721 58.1946 19.5744 57.3839 19.1057 56.3641C18.8991 55.9178 18.8207 55.4611 18.7845 54.9891C18.75 54.5373 18.75 53.989 18.75 53.3414L18.75 48.9047H21.5021Z" fill="#2B4D84"/>
<path fill-rule="evenodd" clip-rule="evenodd" d="M15.629 1.82855C20.9743 -0.339522 26.9023 -0.58748 32.409 1.12667C37.9157 2.84083 42.6625 6.41171 45.8454 11.2345C49.0283 16.0573 50.4516 21.8355 49.8743 27.5904C49.297 33.3454 46.7546 38.7232 42.6776 42.8131C38.6007 46.903 33.2398 49.4535 27.5031 50.0327C21.7664 50.6118 16.0065 49.1839 11.199 45.9909C6.39142 42.7979 2.83184 38.0361 1.12311 32.5119C-0.585621 26.9878 -0.338448 21.0409 1.82276 15.6786C2.08295 15.033 2.81556 14.7213 3.45909 14.9823C4.10262 15.2433 4.41338 15.9783 4.15319 16.6238C2.20928 21.447 1.98696 26.7959 3.52388 31.7646C5.0608 36.7333 8.26248 41.0163 12.5866 43.8883C16.9108 46.7603 22.0915 48.0446 27.2514 47.5237C32.4113 47.0028 37.2332 44.7087 40.9002 41.03C44.5672 37.3514 46.854 32.5142 47.3733 27.3379C47.8925 22.1617 46.6123 16.9644 43.7494 12.6266C40.8865 8.28871 36.617 5.07687 31.6641 3.53507C26.7111 1.99327 21.3791 2.2163 16.5712 4.16637C15.9277 4.42739 15.1951 4.11564 14.9349 3.47007C14.6747 2.8245 14.9855 2.08956 15.629 1.82855Z" fill="#2B4D84"/>
</svg>
