<svg width="286" height="472" viewBox="0 0 286 472" fill="none" xmlns="http://www.w3.org/2000/svg">
<g opacity="0.2">
<mask id="mask0_37_1111" style="mask-type:alpha" maskUnits="userSpaceOnUse" x="68" y="69" width="334" height="334">
<ellipse cx="235.397" cy="236" rx="166.451" ry="166.451" transform="rotate(135 235.397 236)" fill="#D9D9D9"/>
</mask>
<g mask="url(#mask0_37_1111)">
<path d="M515.214 204.667C527.02 235.735 527.787 300.765 436.408 312.347C322.184 326.825 312.548 353.961 332.396 416.359C352.244 478.758 306.713 538.289 218.928 529.827" stroke="#245797" stroke-width="1.5"/>
<path d="M491.241 180.694C503.047 211.762 503.814 276.792 412.435 288.374C298.211 302.852 288.575 329.988 308.423 392.386C328.271 454.785 282.74 514.316 194.955 505.854" stroke="#245797" stroke-width="1.5"/>
<path d="M467.269 156.721C479.075 187.789 479.842 252.819 388.463 264.402C274.238 278.879 264.602 306.015 284.451 368.414C304.299 430.812 258.767 490.343 170.983 481.881" stroke="#245797" stroke-width="1.5"/>
<path d="M371.378 60.8303C383.184 91.8978 383.951 156.928 292.571 168.51C178.347 182.988 168.711 210.124 188.559 272.522C208.408 334.921 162.876 394.452 75.0917 385.99" stroke="#245797" stroke-width="1.5"/>
<path d="M347.405 36.8576C359.211 67.9251 359.978 132.956 268.599 144.538C154.374 159.015 144.738 186.151 164.587 248.55C184.435 310.949 138.903 370.48 51.1188 362.018" stroke="#245797" stroke-width="1.5"/>
<path d="M323.432 12.885C335.238 43.9524 336.005 108.983 244.626 120.565C130.402 135.043 120.765 162.178 140.614 224.577C160.462 286.976 114.93 346.507 27.1459 338.045" stroke="#245797" stroke-width="1.5"/>
<path d="M443.296 132.749C455.102 163.816 455.869 228.847 364.49 240.429C250.266 254.907 240.629 282.042 260.478 344.441C280.326 406.84 234.794 466.371 147.01 457.909" stroke="#245797" stroke-width="1.5"/>
<path d="M419.323 108.776C431.129 139.844 431.896 204.874 340.517 216.456C226.293 230.934 216.656 258.07 236.505 320.468C256.353 382.867 210.821 442.398 123.037 433.936" stroke="#245797" stroke-width="1.5"/>
<path d="M395.351 84.8039C407.157 115.871 407.924 180.902 316.544 192.484C202.32 206.962 192.684 234.097 212.532 296.496C232.381 358.895 186.849 418.426 99.0646 409.964" stroke="#245797" stroke-width="1.5"/>
<path d="M299.459 -11.0877C311.265 19.9798 312.033 85.0103 220.653 96.5924C106.429 111.07 96.7929 138.206 116.641 200.605C136.49 263.003 90.958 322.534 3.17347 314.072" stroke="#245797" stroke-width="1.5"/>
<path d="M275.487 -35.0599C287.293 -3.99238 288.06 61.0381 196.681 72.6203C82.4565 87.0979 72.8202 114.234 92.6685 176.632C112.517 239.031 66.9853 298.562 -20.7992 290.1" stroke="#245797" stroke-width="1.5"/>
<path d="M251.514 -59.033C263.32 -27.9655 264.087 37.065 172.708 48.6471C58.4836 63.1248 48.8473 90.2605 68.6956 152.659C88.544 215.058 43.0124 274.589 -44.7721 266.127" stroke="#245797" stroke-width="1.5"/>
</g>
</g>
</svg>
