<svg width="167" height="158" viewBox="0 0 167 158" fill="none" xmlns="http://www.w3.org/2000/svg">
<g opacity="0.2">
<ellipse cx="2.34112" cy="2.39114" rx="2.34112" ry="2.39114" fill="#2B4D84"/>
<ellipse cx="14.827" cy="2.39114" rx="2.34112" ry="2.39114" fill="#2B4D84"/>
<ellipse cx="27.313" cy="2.39114" rx="2.34112" ry="2.39114" fill="#2B4D84"/>
<ellipse cx="39.7991" cy="2.39114" rx="2.34112" ry="2.39114" fill="#2B4D84"/>
<ellipse cx="52.285" cy="2.39114" rx="2.34112" ry="2.39114" fill="#2B4D84"/>
<ellipse cx="64.771" cy="2.39114" rx="2.34112" ry="2.39114" fill="#2B4D84"/>
<ellipse cx="77.2569" cy="2.39114" rx="2.34112" ry="2.39114" fill="#2B4D84"/>
<ellipse cx="89.7427" cy="2.39114" rx="2.34112" ry="2.39114" fill="#2B4D84"/>
<ellipse cx="102.229" cy="2.39114" rx="2.34112" ry="2.39114" fill="#2B4D84"/>
<ellipse cx="114.715" cy="2.39114" rx="2.34112" ry="2.39114" fill="#2B4D84"/>
<ellipse cx="127.201" cy="2.39114" rx="2.34112" ry="2.39114" fill="#2B4D84"/>
<ellipse cx="139.687" cy="2.39114" rx="2.34112" ry="2.39114" fill="#2B4D84"/>
<ellipse cx="152.173" cy="2.39114" rx="2.34112" ry="2.39114" fill="#2B4D84"/>
<ellipse cx="164.659" cy="2.39114" rx="2.34112" ry="2.39114" fill="#2B4D84"/>
<ellipse cx="2.34112" cy="15.1438" rx="2.34112" ry="2.39114" fill="#2B4D84"/>
<ellipse cx="14.827" cy="15.1438" rx="2.34112" ry="2.39114" fill="#2B4D84"/>
<ellipse cx="27.313" cy="15.1438" rx="2.34112" ry="2.39114" fill="#2B4D84"/>
<ellipse cx="39.7991" cy="15.1438" rx="2.34112" ry="2.39114" fill="#2B4D84"/>
<ellipse cx="52.285" cy="15.1438" rx="2.34112" ry="2.39114" fill="#2B4D84"/>
<ellipse cx="64.771" cy="15.1438" rx="2.34112" ry="2.39114" fill="#2B4D84"/>
<ellipse cx="77.2569" cy="15.1438" rx="2.34112" ry="2.39114" fill="#2B4D84"/>
<ellipse cx="89.7427" cy="15.1438" rx="2.34112" ry="2.39114" fill="#2B4D84"/>
<ellipse cx="102.229" cy="15.1438" rx="2.34112" ry="2.39114" fill="#2B4D84"/>
<ellipse cx="114.715" cy="15.1438" rx="2.34112" ry="2.39114" fill="#2B4D84"/>
<ellipse cx="127.201" cy="15.1438" rx="2.34112" ry="2.39114" fill="#2B4D84"/>
<ellipse cx="139.687" cy="15.1438" rx="2.34112" ry="2.39114" fill="#2B4D84"/>
<ellipse cx="152.173" cy="15.1438" rx="2.34112" ry="2.39114" fill="#2B4D84"/>
<ellipse cx="164.659" cy="15.1438" rx="2.34112" ry="2.39114" fill="#2B4D84"/>
<ellipse cx="2.34112" cy="27.8965" rx="2.34112" ry="2.39114" fill="#2B4D84"/>
<ellipse cx="14.827" cy="27.8965" rx="2.34112" ry="2.39114" fill="#2B4D84"/>
<ellipse cx="27.313" cy="27.8965" rx="2.34112" ry="2.39114" fill="#2B4D84"/>
<ellipse cx="39.7991" cy="27.8965" rx="2.34112" ry="2.39114" fill="#2B4D84"/>
<ellipse cx="52.285" cy="27.8965" rx="2.34112" ry="2.39114" fill="#2B4D84"/>
<ellipse cx="64.771" cy="27.8965" rx="2.34112" ry="2.39114" fill="#2B4D84"/>
<ellipse cx="77.2569" cy="27.8965" rx="2.34112" ry="2.39114" fill="#2B4D84"/>
<ellipse cx="89.7427" cy="27.8965" rx="2.34112" ry="2.39114" fill="#2B4D84"/>
<ellipse cx="102.229" cy="27.8965" rx="2.34112" ry="2.39114" fill="#2B4D84"/>
<ellipse cx="114.715" cy="27.8965" rx="2.34112" ry="2.39114" fill="#2B4D84"/>
<ellipse cx="127.201" cy="27.8965" rx="2.34112" ry="2.39114" fill="#2B4D84"/>
<ellipse cx="139.687" cy="27.8965" rx="2.34112" ry="2.39114" fill="#2B4D84"/>
<ellipse cx="152.173" cy="27.8965" rx="2.34112" ry="2.39114" fill="#2B4D84"/>
<ellipse cx="164.659" cy="27.8965" rx="2.34112" ry="2.39114" fill="#2B4D84"/>
<ellipse cx="2.34112" cy="40.6494" rx="2.34112" ry="2.39114" fill="#2B4D84"/>
<ellipse cx="14.827" cy="40.6494" rx="2.34112" ry="2.39114" fill="#2B4D84"/>
<ellipse cx="27.313" cy="40.6494" rx="2.34112" ry="2.39114" fill="#2B4D84"/>
<ellipse cx="39.7991" cy="40.6494" rx="2.34112" ry="2.39114" fill="#2B4D84"/>
<ellipse cx="52.285" cy="40.6494" rx="2.34112" ry="2.39114" fill="#2B4D84"/>
<ellipse cx="64.771" cy="40.6494" rx="2.34112" ry="2.39114" fill="#2B4D84"/>
<ellipse cx="77.2569" cy="40.6494" rx="2.34112" ry="2.39114" fill="#2B4D84"/>
<ellipse cx="89.7427" cy="40.6494" rx="2.34112" ry="2.39114" fill="#2B4D84"/>
<ellipse cx="102.229" cy="40.6494" rx="2.34112" ry="2.39114" fill="#2B4D84"/>
<ellipse cx="114.715" cy="40.6494" rx="2.34112" ry="2.39114" fill="#2B4D84"/>
<ellipse cx="127.201" cy="40.6494" rx="2.34112" ry="2.39114" fill="#2B4D84"/>
<ellipse cx="139.687" cy="40.6494" rx="2.34112" ry="2.39114" fill="#2B4D84"/>
<ellipse cx="152.173" cy="40.6494" rx="2.34112" ry="2.39114" fill="#2B4D84"/>
<ellipse cx="164.659" cy="40.6494" rx="2.34112" ry="2.39114" fill="#2B4D84"/>
<ellipse cx="2.34112" cy="53.4019" rx="2.34112" ry="2.39114" fill="#2B4D84"/>
<ellipse cx="14.827" cy="53.4019" rx="2.34112" ry="2.39114" fill="#2B4D84"/>
<ellipse cx="27.313" cy="53.4019" rx="2.34112" ry="2.39114" fill="#2B4D84"/>
<ellipse cx="39.7991" cy="53.4019" rx="2.34112" ry="2.39114" fill="#2B4D84"/>
<ellipse cx="52.285" cy="53.4019" rx="2.34112" ry="2.39114" fill="#2B4D84"/>
<ellipse cx="64.771" cy="53.4019" rx="2.34112" ry="2.39114" fill="#2B4D84"/>
<ellipse cx="77.2569" cy="53.4019" rx="2.34112" ry="2.39114" fill="#2B4D84"/>
<ellipse cx="89.7427" cy="53.4019" rx="2.34112" ry="2.39114" fill="#2B4D84"/>
<ellipse cx="102.229" cy="53.4019" rx="2.34112" ry="2.39114" fill="#2B4D84"/>
<ellipse cx="114.715" cy="53.4019" rx="2.34112" ry="2.39114" fill="#2B4D84"/>
<ellipse cx="127.201" cy="53.4019" rx="2.34112" ry="2.39114" fill="#2B4D84"/>
<ellipse cx="139.687" cy="53.4019" rx="2.34112" ry="2.39114" fill="#2B4D84"/>
<ellipse cx="152.173" cy="53.4019" rx="2.34112" ry="2.39114" fill="#2B4D84"/>
<ellipse cx="164.659" cy="53.4019" rx="2.34112" ry="2.39114" fill="#2B4D84"/>
<ellipse cx="2.34112" cy="66.1546" rx="2.34112" ry="2.39114" fill="#2B4D84"/>
<ellipse cx="14.827" cy="66.1546" rx="2.34112" ry="2.39114" fill="#2B4D84"/>
<ellipse cx="27.313" cy="66.1546" rx="2.34112" ry="2.39114" fill="#2B4D84"/>
<ellipse cx="39.7991" cy="66.1546" rx="2.34112" ry="2.39114" fill="#2B4D84"/>
<ellipse cx="52.285" cy="66.1546" rx="2.34112" ry="2.39114" fill="#2B4D84"/>
<ellipse cx="64.771" cy="66.1546" rx="2.34112" ry="2.39114" fill="#2B4D84"/>
<ellipse cx="77.2569" cy="66.1546" rx="2.34112" ry="2.39114" fill="#2B4D84"/>
<ellipse cx="89.7427" cy="66.1546" rx="2.34112" ry="2.39114" fill="#2B4D84"/>
<ellipse cx="102.229" cy="66.1546" rx="2.34112" ry="2.39114" fill="#2B4D84"/>
<ellipse cx="114.715" cy="66.1546" rx="2.34112" ry="2.39114" fill="#2B4D84"/>
<ellipse cx="127.201" cy="66.1546" rx="2.34112" ry="2.39114" fill="#2B4D84"/>
<ellipse cx="139.687" cy="66.1546" rx="2.34112" ry="2.39114" fill="#2B4D84"/>
<ellipse cx="152.173" cy="66.1546" rx="2.34112" ry="2.39114" fill="#2B4D84"/>
<ellipse cx="164.659" cy="66.1546" rx="2.34112" ry="2.39114" fill="#2B4D84"/>
<ellipse cx="2.34112" cy="78.9075" rx="2.34112" ry="2.39114" fill="#2B4D84"/>
<ellipse cx="14.827" cy="78.9075" rx="2.34112" ry="2.39114" fill="#2B4D84"/>
<ellipse cx="27.313" cy="78.9075" rx="2.34112" ry="2.39114" fill="#2B4D84"/>
<ellipse cx="39.7991" cy="78.9075" rx="2.34112" ry="2.39114" fill="#2B4D84"/>
<ellipse cx="52.285" cy="78.9075" rx="2.34112" ry="2.39114" fill="#2B4D84"/>
<ellipse cx="64.771" cy="78.9075" rx="2.34112" ry="2.39114" fill="#2B4D84"/>
<ellipse cx="77.2569" cy="78.9075" rx="2.34112" ry="2.39114" fill="#2B4D84"/>
<ellipse cx="89.7427" cy="78.9075" rx="2.34112" ry="2.39114" fill="#2B4D84"/>
<ellipse cx="102.229" cy="78.9075" rx="2.34112" ry="2.39114" fill="#2B4D84"/>
<ellipse cx="114.715" cy="78.9075" rx="2.34112" ry="2.39114" fill="#2B4D84"/>
<ellipse cx="127.201" cy="78.9075" rx="2.34112" ry="2.39114" fill="#2B4D84"/>
<ellipse cx="139.687" cy="78.9075" rx="2.34112" ry="2.39114" fill="#2B4D84"/>
<ellipse cx="152.173" cy="78.9075" rx="2.34112" ry="2.39114" fill="#2B4D84"/>
<ellipse cx="164.659" cy="78.9075" rx="2.34112" ry="2.39114" fill="#2B4D84"/>
<ellipse cx="2.34112" cy="91.6602" rx="2.34112" ry="2.39114" fill="#2B4D84"/>
<ellipse cx="14.827" cy="91.6602" rx="2.34112" ry="2.39114" fill="#2B4D84"/>
<ellipse cx="27.313" cy="91.6602" rx="2.34112" ry="2.39114" fill="#2B4D84"/>
<ellipse cx="39.7991" cy="91.6602" rx="2.34112" ry="2.39114" fill="#2B4D84"/>
<ellipse cx="52.285" cy="91.6602" rx="2.34112" ry="2.39114" fill="#2B4D84"/>
<ellipse cx="64.771" cy="91.6602" rx="2.34112" ry="2.39114" fill="#2B4D84"/>
<ellipse cx="77.2569" cy="91.6602" rx="2.34112" ry="2.39114" fill="#2B4D84"/>
<ellipse cx="89.7427" cy="91.6602" rx="2.34112" ry="2.39114" fill="#2B4D84"/>
<ellipse cx="102.229" cy="91.6602" rx="2.34112" ry="2.39114" fill="#2B4D84"/>
<ellipse cx="114.715" cy="91.6602" rx="2.34112" ry="2.39114" fill="#2B4D84"/>
<ellipse cx="127.201" cy="91.6602" rx="2.34112" ry="2.39114" fill="#2B4D84"/>
<ellipse cx="139.687" cy="91.6602" rx="2.34112" ry="2.39114" fill="#2B4D84"/>
<ellipse cx="152.173" cy="91.6602" rx="2.34112" ry="2.39114" fill="#2B4D84"/>
<ellipse cx="164.659" cy="91.6602" rx="2.34112" ry="2.39114" fill="#2B4D84"/>
<ellipse cx="2.34112" cy="104.413" rx="2.34112" ry="2.39114" fill="#2B4D84"/>
<ellipse cx="14.827" cy="104.413" rx="2.34112" ry="2.39114" fill="#2B4D84"/>
<ellipse cx="27.313" cy="104.413" rx="2.34112" ry="2.39114" fill="#2B4D84"/>
<ellipse cx="39.7991" cy="104.413" rx="2.34112" ry="2.39114" fill="#2B4D84"/>
<ellipse cx="52.285" cy="104.413" rx="2.34112" ry="2.39114" fill="#2B4D84"/>
<ellipse cx="64.771" cy="104.413" rx="2.34112" ry="2.39114" fill="#2B4D84"/>
<ellipse cx="77.2569" cy="104.413" rx="2.34112" ry="2.39114" fill="#2B4D84"/>
<ellipse cx="89.7427" cy="104.413" rx="2.34112" ry="2.39114" fill="#2B4D84"/>
<ellipse cx="102.229" cy="104.413" rx="2.34112" ry="2.39114" fill="#2B4D84"/>
<ellipse cx="114.715" cy="104.413" rx="2.34112" ry="2.39114" fill="#2B4D84"/>
<ellipse cx="127.201" cy="104.413" rx="2.34112" ry="2.39114" fill="#2B4D84"/>
<ellipse cx="139.687" cy="104.413" rx="2.34112" ry="2.39114" fill="#2B4D84"/>
<ellipse cx="152.173" cy="104.413" rx="2.34112" ry="2.39114" fill="#2B4D84"/>
<ellipse cx="164.659" cy="104.413" rx="2.34112" ry="2.39114" fill="#2B4D84"/>
<ellipse cx="2.34112" cy="117.166" rx="2.34112" ry="2.39114" fill="#2B4D84"/>
<ellipse cx="14.827" cy="117.166" rx="2.34112" ry="2.39114" fill="#2B4D84"/>
<ellipse cx="27.313" cy="117.166" rx="2.34112" ry="2.39114" fill="#2B4D84"/>
<ellipse cx="39.7991" cy="117.166" rx="2.34112" ry="2.39114" fill="#2B4D84"/>
<ellipse cx="52.285" cy="117.166" rx="2.34112" ry="2.39114" fill="#2B4D84"/>
<ellipse cx="64.771" cy="117.166" rx="2.34112" ry="2.39114" fill="#2B4D84"/>
<ellipse cx="77.2569" cy="117.166" rx="2.34112" ry="2.39114" fill="#2B4D84"/>
<ellipse cx="89.7427" cy="117.166" rx="2.34112" ry="2.39114" fill="#2B4D84"/>
<ellipse cx="102.229" cy="117.166" rx="2.34112" ry="2.39114" fill="#2B4D84"/>
<ellipse cx="114.715" cy="117.166" rx="2.34112" ry="2.39114" fill="#2B4D84"/>
<ellipse cx="127.201" cy="117.166" rx="2.34112" ry="2.39114" fill="#2B4D84"/>
<ellipse cx="139.687" cy="117.166" rx="2.34112" ry="2.39114" fill="#2B4D84"/>
<ellipse cx="152.173" cy="117.166" rx="2.34112" ry="2.39114" fill="#2B4D84"/>
<ellipse cx="164.659" cy="117.166" rx="2.34112" ry="2.39114" fill="#2B4D84"/>
<ellipse cx="2.34112" cy="129.918" rx="2.34112" ry="2.39114" fill="#2B4D84"/>
<ellipse cx="14.827" cy="129.918" rx="2.34112" ry="2.39114" fill="#2B4D84"/>
<ellipse cx="27.313" cy="129.918" rx="2.34112" ry="2.39114" fill="#2B4D84"/>
<ellipse cx="39.7991" cy="129.918" rx="2.34112" ry="2.39114" fill="#2B4D84"/>
<ellipse cx="52.285" cy="129.918" rx="2.34112" ry="2.39114" fill="#2B4D84"/>
<ellipse cx="64.771" cy="129.918" rx="2.34112" ry="2.39114" fill="#2B4D84"/>
<ellipse cx="77.2569" cy="129.918" rx="2.34112" ry="2.39114" fill="#2B4D84"/>
<ellipse cx="89.7427" cy="129.918" rx="2.34112" ry="2.39114" fill="#2B4D84"/>
<ellipse cx="102.229" cy="129.918" rx="2.34112" ry="2.39114" fill="#2B4D84"/>
<ellipse cx="114.715" cy="129.918" rx="2.34112" ry="2.39114" fill="#2B4D84"/>
<ellipse cx="127.201" cy="129.918" rx="2.34112" ry="2.39114" fill="#2B4D84"/>
<ellipse cx="139.687" cy="129.918" rx="2.34112" ry="2.39114" fill="#2B4D84"/>
<ellipse cx="152.173" cy="129.918" rx="2.34112" ry="2.39114" fill="#2B4D84"/>
<ellipse cx="164.659" cy="129.918" rx="2.34112" ry="2.39114" fill="#2B4D84"/>
<ellipse cx="2.34112" cy="142.671" rx="2.34112" ry="2.39114" fill="#2B4D84"/>
<ellipse cx="14.827" cy="142.671" rx="2.34112" ry="2.39114" fill="#2B4D84"/>
<ellipse cx="27.313" cy="142.671" rx="2.34112" ry="2.39114" fill="#2B4D84"/>
<ellipse cx="39.7991" cy="142.671" rx="2.34112" ry="2.39114" fill="#2B4D84"/>
<ellipse cx="52.285" cy="142.671" rx="2.34112" ry="2.39114" fill="#2B4D84"/>
<ellipse cx="64.771" cy="142.671" rx="2.34112" ry="2.39114" fill="#2B4D84"/>
<ellipse cx="77.2569" cy="142.671" rx="2.34112" ry="2.39114" fill="#2B4D84"/>
<ellipse cx="89.7427" cy="142.671" rx="2.34112" ry="2.39114" fill="#2B4D84"/>
<ellipse cx="102.229" cy="142.671" rx="2.34112" ry="2.39114" fill="#2B4D84"/>
<ellipse cx="114.715" cy="142.671" rx="2.34112" ry="2.39114" fill="#2B4D84"/>
<ellipse cx="127.201" cy="142.671" rx="2.34112" ry="2.39114" fill="#2B4D84"/>
<ellipse cx="139.687" cy="142.671" rx="2.34112" ry="2.39114" fill="#2B4D84"/>
<ellipse cx="152.173" cy="142.671" rx="2.34112" ry="2.39114" fill="#2B4D84"/>
<ellipse cx="164.659" cy="142.671" rx="2.34112" ry="2.39114" fill="#2B4D84"/>
<ellipse cx="2.34112" cy="155.424" rx="2.34112" ry="2.39114" fill="#2B4D84"/>
<ellipse cx="14.827" cy="155.424" rx="2.34112" ry="2.39114" fill="#2B4D84"/>
<ellipse cx="27.313" cy="155.424" rx="2.34112" ry="2.39114" fill="#2B4D84"/>
<ellipse cx="39.7991" cy="155.424" rx="2.34112" ry="2.39114" fill="#2B4D84"/>
<ellipse cx="52.285" cy="155.424" rx="2.34112" ry="2.39114" fill="#2B4D84"/>
<ellipse cx="64.771" cy="155.424" rx="2.34112" ry="2.39114" fill="#2B4D84"/>
<ellipse cx="77.2569" cy="155.424" rx="2.34112" ry="2.39114" fill="#2B4D84"/>
<ellipse cx="89.7427" cy="155.424" rx="2.34112" ry="2.39114" fill="#2B4D84"/>
<ellipse cx="102.229" cy="155.424" rx="2.34112" ry="2.39114" fill="#2B4D84"/>
<ellipse cx="114.715" cy="155.424" rx="2.34112" ry="2.39114" fill="#2B4D84"/>
<ellipse cx="127.201" cy="155.424" rx="2.34112" ry="2.39114" fill="#2B4D84"/>
<ellipse cx="139.687" cy="155.424" rx="2.34112" ry="2.39114" fill="#2B4D84"/>
<ellipse cx="152.173" cy="155.424" rx="2.34112" ry="2.39114" fill="#2B4D84"/>
<ellipse cx="164.659" cy="155.424" rx="2.34112" ry="2.39114" fill="#2B4D84"/>
</g>
</svg>
