<svg width="52" height="68" viewBox="0 0 52 68" fill="none" xmlns="http://www.w3.org/2000/svg">
<path d="M10.8062 67.2266C9.72292 67.6082 8.73383 67.4719 7.839 66.8177C6.94417 66.1634 6.49783 65.291 6.5 64.2006V43.4274C4.44167 41.1374 2.84375 38.5203 1.70625 35.5761C0.56875 32.6319 0 29.4968 0 26.1709C0 18.8649 2.51875 12.6765 7.55625 7.60593C12.5938 2.53531 18.7417 0 26 0C33.2583 0 39.4062 2.53531 44.4437 7.60593C49.4812 12.6765 52 18.8649 52 26.1709C52 29.4968 51.4313 32.6319 50.2938 35.5761C49.1562 38.5203 47.5583 41.1374 45.5 43.4274V64.2006C45.5 65.291 45.0526 66.1634 44.1577 66.8177C43.2629 67.4719 42.2749 67.6082 41.1937 67.2266L26 62.156L10.8062 67.2266ZM26 45.7991C31.4167 45.7991 36.0208 43.8908 39.8125 40.0742C43.6042 36.2576 45.5 31.6232 45.5 26.1709C45.5 20.7187 43.6042 16.0842 39.8125 12.2676C36.0208 8.45103 31.4167 6.54273 26 6.54273C20.5833 6.54273 15.9792 8.45103 12.1875 12.2676C8.39583 16.0842 6.5 20.7187 6.5 26.1709C6.5 31.6232 8.39583 36.2576 12.1875 40.0742C15.9792 43.8908 20.5833 45.7991 26 45.7991ZM13 58.9664L26 55.6132L39 58.9664V48.8251C37.1042 49.9156 35.0588 50.7749 32.864 51.403C30.6692 52.0311 28.3812 52.344 26 52.3419C23.6167 52.3419 21.3276 52.0278 19.1328 51.3997C16.9379 50.7716 14.8937 49.9134 13 48.8251V58.9664Z" fill="#2B4D84"/>
<path fill-rule="evenodd" clip-rule="evenodd" d="M17.3875 25.8438L21.2875 28.9516L19.9062 33.3679C19.6354 34.1313 19.8391 34.7452 20.5172 35.2097C21.1954 35.6743 21.8584 35.6601 22.5063 35.1672L26 32.4683L29.4125 35.1672C30.0083 35.6579 30.6583 35.6721 31.3625 35.2097C32.0667 34.7474 32.2833 34.1334 32.0125 33.3679L30.6313 28.9516L34.5312 25.8438C35.1271 25.3531 35.3037 24.7392 35.061 24.002C34.8183 23.2649 34.3167 22.8974 33.5563 22.8996H28.925L27.5438 18.565C27.2729 17.8017 26.7583 17.42 26 17.42C25.2417 17.42 24.7271 17.8017 24.4562 18.565L23.075 22.8996H18.4438C17.6854 22.8996 17.1708 23.2812 16.9 24.0445C16.6292 24.8079 16.7917 25.4076 17.3875 25.8438ZM26 19.4216L24.3477 24.6068H18.5911L23.2892 28.3506L21.6223 33.6803L26.0127 30.2888L30.295 33.6756L28.6296 28.3506L33.3277 24.6068H27.6523L26 19.4216ZM18.5062 24.7196C18.5061 24.7196 18.5062 24.7188 18.5064 24.7172L18.5062 24.7196ZM10.2362 65.6142L26 60.3534L41.7643 65.6144L41.7785 65.6194C42.3342 65.8156 42.7119 65.7486 43.1246 65.4468C43.5824 65.1121 43.7667 64.7465 43.7667 64.2006V42.7802L44.2022 42.2957C46.1177 40.1646 47.6084 37.7265 48.6738 34.9689C49.7322 32.2293 50.2667 29.301 50.2667 26.1709C50.2667 19.2964 47.915 13.5411 43.2049 8.79999C38.4963 4.06044 32.7962 1.70728 26 1.70728C19.2038 1.70728 13.5037 4.06044 8.79513 8.79999C4.08498 13.5411 1.73333 19.2964 1.73333 26.1709C1.73333 29.301 2.26779 32.2293 3.32625 34.9689C4.39163 37.7265 5.88228 40.1646 7.79779 42.2957L8.23333 42.7802V64.2039C8.23225 64.7486 8.4153 65.1128 8.87215 65.4468C9.2842 65.7481 9.66323 65.8161 10.2225 65.619L10.2362 65.6142ZM11.2667 61.1783V45.8524L13.8735 47.3505C15.6395 48.3654 17.5521 49.1695 19.6164 49.7602C21.6474 50.3415 23.7733 50.6346 26 50.6346H26.0016C28.2255 50.6366 30.3497 50.3446 32.3804 49.7635C34.4443 49.1729 36.3578 48.3678 38.1259 47.3508L40.7333 45.8511V61.1783L26 57.3781L11.2667 61.1783ZM26 55.6132L39 58.9664V48.8251C38.4355 49.1498 37.8577 49.4541 37.2667 49.7378C35.8728 50.4068 34.4053 50.9619 32.864 51.403C30.6692 52.0311 28.3812 52.344 26 52.3419C23.6167 52.3419 21.3276 52.0278 19.1327 51.3997C17.5921 50.9588 16.1256 50.4045 14.7333 49.7369C14.1422 49.4534 13.5644 49.1495 13 48.8251V58.9664L26 55.6132ZM45.5 43.4274C47.5583 41.1374 49.1562 38.5203 50.2938 35.5761C51.4313 32.6319 52 29.4968 52 26.1709C52 18.8649 49.4812 12.6765 44.4437 7.60593C39.4062 2.53531 33.2583 0 26 0C18.7417 0 12.5937 2.53531 7.55625 7.60593C2.51875 12.6765 0 18.8649 0 26.1709C0 29.4968 0.56875 32.6319 1.70625 35.5761C2.84375 38.5203 4.44167 41.1374 6.5 43.4274V64.2006C6.49783 65.291 6.94417 66.1634 7.839 66.8177C8.73383 67.4719 9.72292 67.6082 10.8062 67.2266L26 62.156L41.1937 67.2266C42.2749 67.6082 43.2629 67.4719 44.1577 66.8177C45.0526 66.1634 45.5 65.291 45.5 64.2006V43.4274ZM41.0514 41.2683C36.934 45.4128 31.8834 47.5064 26 47.5064C20.1166 47.5064 15.066 45.4128 10.9486 41.2683C6.83262 37.1252 4.76667 32.0591 4.76667 26.1709C4.76667 20.2828 6.83262 15.2166 10.9486 11.0736C15.066 6.92907 20.1166 4.83545 26 4.83545C31.8834 4.83545 36.934 6.92907 41.0514 11.0736C45.1674 15.2166 47.2333 20.2828 47.2333 26.1709C47.2333 32.0591 45.1674 37.1252 41.0514 41.2683ZM39.8125 40.0742C36.0208 43.8908 31.4167 45.7991 26 45.7991C20.5833 45.7991 15.9792 43.8908 12.1875 40.0742C8.39583 36.2576 6.5 31.6232 6.5 26.1709C6.5 20.7187 8.39583 16.0842 12.1875 12.2676C15.9792 8.45103 20.5833 6.54273 26 6.54273C31.4167 6.54273 36.0208 8.45103 39.8125 12.2676C43.6042 16.0842 45.5 20.7187 45.5 26.1709C45.5 31.6232 43.6042 36.2576 39.8125 40.0742Z" fill="white"/>
<path d="M26.6654 33.143L26.0468 32.6467L25.4226 33.1359L20.8697 36.7045C20.8689 36.7052 20.868 36.7059 20.8672 36.7065C20.5746 36.9317 20.3489 36.9961 20.1763 36.9998C20.0022 37.0036 19.7682 36.9481 19.4562 36.7312C19.1454 36.5152 19.0223 36.3216 18.973 36.1708C18.924 36.0207 18.9094 35.7953 19.0322 35.4441L19.0384 35.4264L19.0439 35.4086L20.8462 29.5616L21.0455 28.9149L20.5193 28.4894L15.4305 24.3749L15.4145 24.362L15.398 24.3497C15.1569 24.1706 15.0636 24.0074 15.0258 23.8659C14.9851 23.7136 14.9793 23.4732 15.1096 23.1005C15.2388 22.731 15.3962 22.5374 15.5356 22.4325C15.6686 22.3324 15.8623 22.2546 16.18 22.2546H22.2229H22.957L23.177 21.5542L24.9741 15.832C25.1024 15.4716 25.2575 15.2816 25.3951 15.178C25.5282 15.0779 25.7219 15 26.0395 15C26.3572 15 26.5509 15.0779 26.6839 15.178C26.8216 15.2816 26.9767 15.4716 27.105 15.832L28.9021 21.5542L29.122 22.2546H29.8561L35.8991 22.2546L35.902 22.2546C36.2302 22.2536 36.4185 22.3313 36.5376 22.4198C36.6596 22.5105 36.8005 22.6809 36.9114 23.0227C37.0218 23.3632 37.0157 23.6047 36.9651 23.7829C36.9152 23.9589 36.7975 24.1602 36.5357 24.3804L31.4538 28.4894L30.9275 28.9149L31.1269 29.5616L32.9292 35.4086L32.9345 35.426L32.9405 35.4433C33.0618 35.7909 33.0438 36.01 32.9933 36.1552C32.9416 36.3038 32.8119 36.5005 32.4822 36.7202C32.1423 36.9467 31.899 37.0013 31.7336 36.9977C31.5781 36.9942 31.3833 36.9375 31.1335 36.7287L31.1259 36.7224L31.1181 36.7162L26.6654 33.143Z" fill="#0091FF" stroke="white" stroke-width="2"/>
</svg>
